<svg width="144" height="100" viewBox="0 0 144 100" fill="none" xmlns="http://www.w3.org/2000/svg">
<g id="&#208;&#159;&#208;&#181;&#209;&#130;&#209;&#128;&#208;&#190;&#208;&#159;&#209;&#128;&#208;&#190;&#208;&#188;&#208;&#144;&#208;&#187;&#209;&#140;&#209;&#143;&#208;&#189;&#209;&#129;" clip-path="url(#clip0_339_5831)">
<path id="Vector" d="M71.6644 56.0844L55.6054 46.5039L48.0234 47.2057L71.6644 59.5728V56.0844Z" fill="#3F93CB" stroke="#3F93CB" stroke-width="0.5" stroke-linecap="round" stroke-linejoin="round"/>
<path id="Vector_2" d="M71.6644 70.4499L48.0234 53.7858V47.2056L71.6644 59.5727V70.4499Z" fill="white" stroke="#3F93CB" stroke-width="0.5" stroke-linecap="round" stroke-linejoin="round"/>
<path id="Vector_3" d="M71.6644 56.0844L48.0234 42.1663V36.5269L71.6644 46.1073V56.0844Z" fill="white" stroke="#3F93CB" stroke-width="0.5" stroke-linecap="round" stroke-linejoin="round"/>
<path id="Vector_4" d="M71.6644 44.409L48.0234 32.3877V27.75L71.6644 36.3287V44.409Z" fill="white" stroke="#3F93CB" stroke-width="0.5" stroke-linecap="round" stroke-linejoin="round"/>
<path id="Vector_5" d="M71.6644 34.4218L48.0234 25.2939V21.897L71.6644 25.2888V34.4218Z" fill="white" stroke="#3F93CB" stroke-width="0.5" stroke-linecap="round" stroke-linejoin="round"/>
<path id="Vector_6" d="M71.6644 22.4614L51.1712 20.9409L48.0234 21.8969L71.6644 25.2887V22.4614Z" fill="#3F93CB" stroke="#3F93CB" stroke-width="0.5" stroke-linecap="round" stroke-linejoin="round"/>
<path id="Vector_7" d="M71.6644 22.4614L48.0234 20.7121V18.3882L71.6644 14.2539V22.4614Z" fill="white" stroke="#3F93CB" stroke-width="0.5" stroke-linecap="round" stroke-linejoin="round"/>
<path id="Vector_8" d="M71.6644 11.4263L48.0234 17.4319V15.6064L71.6644 5.87842V11.4263Z" fill="white" stroke="#3F93CB" stroke-width="0.5" stroke-linecap="round" stroke-linejoin="round"/>
<path id="Vector_9" d="M71.6644 11.4263L48.0234 17.4319L50.2101 18.0065L71.6644 14.2536V11.4263Z" fill="#3F93CB" stroke="#3F93CB" stroke-width="0.5" stroke-linecap="round" stroke-linejoin="round"/>
<path id="Vector_10" d="M71.6644 4.80532L48.0234 14.2536V11.655L71.6644 0.126953V4.80532Z" fill="white" stroke="#3F93CB" stroke-width="0.5" stroke-linecap="round" stroke-linejoin="round"/>
<path id="Vector_11" d="M71.6644 4.80566L48.0234 14.2539L50.3423 14.6557L71.6644 5.87864V4.80566Z" fill="#3F93CB" stroke="#3F93CB" stroke-width="0.5" stroke-linecap="round" stroke-linejoin="round"/>
<path id="Vector_12" d="M71.6644 34.4217L53.2561 27.2974L48.0234 27.7499L71.6644 36.3286V34.4217Z" fill="#3F93CB" stroke="#3F93CB" stroke-width="0.5" stroke-linecap="round" stroke-linejoin="round"/>
<path id="Vector_13" d="M71.6644 44.4086L54.1053 35.4282L48.0234 36.5266L71.6644 46.1071V44.4086Z" fill="#3F93CB" stroke="#3F93CB" stroke-width="0.5" stroke-linecap="round" stroke-linejoin="round"/>
<path id="Vector_14" d="M71.6641 70.4499L95.3101 53.7858V47.2056L71.6641 59.5727V70.4499Z" fill="#3F93CB" stroke="#3F93CB" stroke-width="0.5" stroke-linecap="round" stroke-linejoin="round"/>
<path id="Vector_15" d="M71.6641 56.0844L95.3101 42.1663V36.5269L71.6641 46.1073V56.0844Z" fill="#3F93CB" stroke="#3F93CB" stroke-width="0.5" stroke-linecap="round" stroke-linejoin="round"/>
<path id="Vector_16" d="M71.6641 44.409L95.3101 32.3877V27.75L71.6641 36.3287V44.409Z" fill="#3F93CB" stroke="#3F93CB" stroke-width="0.5" stroke-linecap="round" stroke-linejoin="round"/>
<path id="Vector_17" d="M71.6641 34.4218L95.3101 25.2939V21.897L71.6641 25.2888V34.4218Z" fill="#3F93CB" stroke="#3F93CB" stroke-width="0.5" stroke-linecap="round" stroke-linejoin="round"/>
<path id="Vector_18" d="M71.6641 22.4614L92.1624 20.9409L95.3101 21.8969L71.6641 25.2887V22.4614Z" fill="#F8FAF7" stroke="#3F93CB" stroke-width="0.5" stroke-linecap="round" stroke-linejoin="round"/>
<path id="Vector_19" d="M71.6641 22.4614L95.3101 20.7121V18.3882L71.6641 14.2539V22.4614Z" fill="#3F93CB" stroke="#3F93CB" stroke-width="0.5" stroke-linecap="round" stroke-linejoin="round"/>
<path id="Vector_20" d="M71.6641 11.4263L95.3101 17.4319V15.6064L71.6641 5.87842V11.4263Z" fill="#3F93CB" stroke="#3F93CB" stroke-width="0.5" stroke-linecap="round" stroke-linejoin="round"/>
<path id="Vector_21" d="M71.6641 11.4263L95.3101 17.4319L93.1235 18.0065L71.6641 14.2536V11.4263Z" fill="#F8FAF7" stroke="#3F93CB" stroke-width="0.5" stroke-linecap="round" stroke-linejoin="round"/>
<path id="Vector_22" d="M71.6641 4.80532L95.3101 14.2536V11.655L71.6641 0.126953V4.80532Z" fill="#3F93CB" stroke="#3F93CB" stroke-width="0.5" stroke-linecap="round" stroke-linejoin="round"/>
<path id="Vector_23" d="M71.6641 4.80566L95.3101 14.2539L92.9913 14.6557L71.6641 5.87864V4.80566Z" fill="#F8FAF7" stroke="#3F93CB" stroke-width="0.5" stroke-linecap="round" stroke-linejoin="round"/>
<path id="Vector_24" d="M71.6641 34.4217L90.0775 27.2974L95.3101 27.7499L71.6641 36.3286V34.4217Z" fill="#F8FAF7" stroke="#3F93CB" stroke-width="0.5" stroke-linecap="round" stroke-linejoin="round"/>
<path id="Vector_25" d="M71.6641 44.4086L89.2232 35.4282L95.3101 36.5266L71.6641 46.1071V44.4086Z" fill="#F8FAF7" stroke="#3F93CB" stroke-width="0.5" stroke-linecap="round" stroke-linejoin="round"/>
<path id="Vector_26" d="M71.6641 56.0844L87.7281 46.5039L95.3101 47.2057L71.6641 59.5728V56.0844Z" fill="#F8FAF7" stroke="#3F93CB" stroke-width="0.5" stroke-linecap="round" stroke-linejoin="round"/>
<path id="Vector_27" d="M0.309082 97.2388C0.309082 95.5099 1.3668 94.4674 2.80082 94.4674C3.26487 94.4627 3.71717 94.6133 4.08576 94.8952C4.45435 95.1772 4.71804 95.5743 4.83489 96.0235H4.15856C4.03954 95.7662 3.84719 95.5498 3.60565 95.4014C3.3641 95.253 3.08411 95.1793 2.80082 95.1895C1.82955 95.1895 1.17356 95.9624 1.17356 97.2236C1.17356 98.4847 1.82955 99.2881 2.81607 99.2881C3.15284 99.2865 3.47813 99.1655 3.73416 98.9468C3.99019 98.728 4.16038 98.4255 4.2145 98.0931L4.97219 98.1389C4.91306 98.679 4.64693 99.1751 4.22971 99.5231C3.81248 99.8711 3.27663 100.044 2.73471 100.005C1.37697 100 0.309082 98.9983 0.309082 97.2388Z" fill="#3F93CB"/>
<path id="Vector_28" d="M8.78116 95.2557H7.0166V94.5845H11.3848V95.2761H9.62021V99.9239H8.78116V95.2557Z" fill="#3F93CB"/>
<path id="Vector_29" d="M14.0898 94.498H15.8137C17.0189 94.498 17.8732 94.8998 17.8732 96.105C17.8732 97.3102 17.0036 97.7983 15.8137 97.7983H14.9289V99.8324H14.0898V94.498ZM15.7324 97.1423C16.6172 97.1423 17.0392 96.8118 17.0392 96.1253C17.0392 95.4388 16.6019 95.1744 15.7324 95.1744H14.9289V97.1271L15.7324 97.1423Z" fill="#3F93CB"/>
<path id="Vector_30" d="M28.0283 94.5845H28.9487V97.1271C28.9487 97.7017 28.8572 98.3424 28.8216 98.8814L29.4217 97.7576L31.41 94.5845H32.4626V99.9239H31.5422V97.3813C31.5422 96.8118 31.6337 96.2016 31.6693 95.6473L31.0693 96.7711L29.1013 99.9442H28.0283V94.5845Z" fill="#3F93CB"/>
<path id="Vector_31" d="M36.8105 95.2557H35.0459V94.5845H39.4141V95.2761H37.6495V99.9239H36.8105V95.2557Z" fill="#3F93CB"/>
<path id="Vector_32" d="M42.1196 94.5845H45.9386V95.2761H43.0502V96.8016H45.4911V97.4932H43.0502V99.2476H46.0301V99.9392H42.1196V94.5845Z" fill="#3F93CB"/>
<path id="Vector_33" d="M55.7886 94.5845H56.6276V96.705H57.5633C58.7736 96.705 59.5974 97.1576 59.5974 98.2305C59.5974 99.4103 58.7736 99.9036 57.5633 99.9036H55.7886V94.5845ZM57.4769 99.2628C58.3312 99.2628 58.7939 98.9679 58.7939 98.2458C58.7939 97.6254 58.3464 97.3508 57.4616 97.3508H56.6276V99.2425L57.4769 99.2628Z" fill="#3F93CB"/>
<path id="Vector_34" d="M62.5566 94.5845H63.4008V96.7711H65.4654V94.5845H66.3146V99.9239H65.4654V97.4881H63.4008V99.9239H62.5566V94.5845Z" fill="#3F93CB"/>
<path id="Vector_35" d="M70.8504 94.5845H71.8268L73.632 99.9239H72.737L71.8573 97.0152C71.6793 96.4355 71.5014 95.8405 71.3488 95.2354H71.3132C71.1505 95.8405 70.9776 96.4355 70.8047 97.0152L69.9097 99.9239H69.0503L70.8504 94.5845ZM70.0572 97.7424H72.5998V98.3933H70.0572V97.7424Z" fill="#3F93CB"/>
<path id="Vector_36" d="M87.7129 94.5842H88.5519V96.7861H89.8334L91.8166 99.9237H90.8962L89.3401 97.4777H88.5519V99.9237H87.7129V94.5842ZM89.2384 96.9539L90.0266 95.4741C90.4538 94.6758 90.7894 94.4876 91.3234 94.4876C91.4378 94.4846 91.5517 94.5036 91.659 94.5435L91.5115 95.3012C91.446 95.2788 91.3774 95.2668 91.3081 95.2656C91.0691 95.2656 90.9064 95.3572 90.6216 95.886L89.9707 97.1116L89.2384 96.9539Z" fill="#3F93CB"/>
<path id="Vector_37" d="M93.9478 97.2082C93.9478 95.4691 94.9953 94.4673 96.4903 94.4673C97.9854 94.4673 99.0329 95.4843 99.0329 97.2082C99.0329 98.9321 97.9854 100 96.4903 100C94.9953 100 93.9478 98.9778 93.9478 97.2082ZM98.0159 97.2082C98.0159 95.9267 97.4209 95.1741 96.4903 95.1741C95.5598 95.1741 94.9648 95.9166 94.9648 97.2082C94.9648 98.4998 95.5648 99.2829 96.4903 99.2829C97.4158 99.2829 97.9956 98.5202 97.9956 97.2082H98.0159Z" fill="#3F93CB"/>
<path id="Vector_38" d="M20.731 97.2082C20.731 95.4691 21.7785 94.4673 23.2735 94.4673C24.7686 94.4673 25.8161 95.4843 25.8161 97.2082C25.8161 98.9321 24.7686 100 23.2735 100C21.7785 100 20.731 98.9778 20.731 97.2082ZM24.7991 97.2082C24.7991 95.9267 24.2041 95.1741 23.2735 95.1741C22.343 95.1741 21.748 95.9166 21.748 97.2082C21.748 98.4998 22.348 99.2829 23.2735 99.2829C24.199 99.2829 24.7788 98.5202 24.7788 97.2082H24.7991Z" fill="#3F93CB"/>
<path id="Vector_39" d="M101.662 94.5845H102.938L104.214 98.3373H104.255L105.501 94.5845H106.777V99.9239H105.908L105.933 95.4744H105.903L104.555 99.9036H103.858L102.521 95.454H102.496L102.541 99.9036H101.677L101.662 94.5845Z" fill="#3F93CB"/>
<path id="Vector_40" d="M109.778 94.5845H113.958V99.9239H113.017V95.2761H110.719V99.9239H109.778V94.5845Z" fill="#3F93CB"/>
<path id="Vector_41" d="M118.357 94.5845H119.374L121.27 99.9239H120.319L119.394 97.0152C119.206 96.4355 119.018 95.8405 118.855 95.2354H118.819C118.646 95.8405 118.468 96.4355 118.28 97.0152L117.34 99.9239H116.439L118.357 94.5845ZM117.502 97.4118H120.167V98.1441H117.502V97.4118Z" fill="#3F93CB"/>
<path id="Vector_42" d="M123.879 94.5845H124.799V96.7711H127.052V94.5845H127.947V99.9239H127.027V97.4881H124.774V99.9239H123.879V94.5845Z" fill="#3F93CB"/>
<path id="Vector_43" d="M131.166 94.5843H132.015V97.1269C132.015 97.7015 131.934 98.3422 131.898 98.8813L132.524 97.7371L134.385 94.564H135.402V99.9034H134.532V97.3608C134.532 96.7913 134.614 96.181 134.654 95.6268H134.629L134.049 96.7302L132.188 99.9034H131.171L131.166 94.5843Z" fill="#3F93CB"/>
<path id="Vector_44" d="M140.045 97.0301L140.711 97.4115L139.109 99.8015H138.066L140.045 97.0301ZM141.535 97.6301H140.431C139.302 97.6047 138.397 97.1216 138.397 96.008C138.397 94.8943 139.302 94.4824 140.517 94.4824H142.44V99.8219H141.535V97.6301ZM141.535 96.9742V95.1181H140.624C139.765 95.1181 139.297 95.352 139.297 96.008C139.297 96.664 139.765 96.9742 140.624 96.9742H141.535Z" fill="#3F93CB"/>
<path id="Vector_45" d="M78.2091 97.0301L78.8803 97.4115L77.2734 99.8015H76.2563L78.2091 97.0301ZM79.7041 97.6301H78.621C77.492 97.6047 76.5869 97.1216 76.5869 96.008C76.5869 94.8943 77.492 94.4824 78.7074 94.4824H80.6296V99.8219H79.7244L79.7041 97.6301ZM79.7041 96.9742V95.1181H78.7938C77.9345 95.1181 77.4615 95.352 77.4615 96.008C77.4615 96.664 77.9345 96.9742 78.7938 96.9742H79.7041Z" fill="#3F93CB"/>
<path id="Vector_46" d="M49.3914 94.4673H52.5188V99.8525H51.6238V95.3724H50.2864V97.7625C50.2864 97.9659 50.2864 98.1184 50.2864 98.2252C50.2771 98.3701 50.2602 98.5144 50.2355 98.6575C50.2151 98.834 50.1652 99.0059 50.088 99.166C50.0112 99.31 49.9135 99.442 49.7982 99.5575C49.6766 99.6757 49.5324 99.7681 49.3742 99.8293C49.2161 99.8905 49.0472 99.9191 48.8778 99.9135C48.7506 99.9145 48.6239 99.8974 48.5015 99.8627V98.9575C48.5824 98.99 48.6686 99.0072 48.7557 99.0083C48.8347 99.0103 48.913 98.9939 48.9845 98.9604C49.056 98.9268 49.1187 98.8771 49.1676 98.8151C49.2506 98.7118 49.3065 98.5895 49.3304 98.4591C49.3621 98.3324 49.3825 98.2031 49.3914 98.0727C49.3914 97.9659 49.3914 97.793 49.3914 97.5642V94.4673Z" fill="#3F93CB"/>
<path id="Vector_47" d="M0.309082 79.6392H8.88778V90.6231H6.41129V81.7241H2.79065V90.6231H0.309082V79.6392Z" fill="#3F93CB"/>
<path id="Vector_48" d="M22.6074 84.2052H20.1411V82.2627H27.5502V84.2052H25.0839V90.6227H22.6074V84.2052Z" fill="#3F93CB"/>
<path id="Vector_49" d="M33.6881 82.0597C33.1883 82.0327 32.6886 82.1152 32.2239 82.3014C31.7593 82.4876 31.3409 82.773 30.9981 83.1378L30.9625 82.2631H28.8623V93.7251H31.354V89.9519C31.9332 90.4384 32.6796 90.6793 33.4339 90.6231C35.3154 90.6231 37.085 89.1789 37.085 86.3109C37.0799 83.7327 35.7883 82.2021 33.6881 82.0597ZM33.2101 88.8484C32.0812 88.8484 31.1761 87.7551 31.1761 86.4075C31.1761 85.0599 32.0914 83.9616 33.2101 83.9616C34.3289 83.9616 35.2442 85.0549 35.2442 86.4075C35.2442 87.7602 34.334 88.8484 33.2101 88.8484Z" fill="#3F93CB"/>
<path id="Vector_50" d="M63.9347 82.0594C63.4348 82.0318 62.9349 82.1139 62.4701 82.3002C62.0054 82.4864 61.5871 82.7722 61.2447 83.1375L61.2091 82.2629H59.1089V93.7248H61.5955V89.9516C62.1747 90.4382 62.9211 90.6791 63.6754 90.6229C65.5569 90.6229 67.3265 89.1787 67.3265 86.3107C67.3265 83.7325 66.0349 82.2018 63.9347 82.0594ZM63.4262 88.8482C62.3024 88.8482 61.3921 87.7548 61.3921 86.4073C61.3921 85.0597 62.3075 83.9613 63.4262 83.9613C64.5449 83.9613 65.4603 85.0546 65.4603 86.4073C65.4603 87.7599 64.5805 88.8482 63.4516 88.8482H63.4262Z" fill="#3F93CB"/>
<path id="Vector_51" d="M42.6888 82.0594C41.8229 82.0634 40.9776 82.3238 40.2596 82.8077C39.5415 83.2915 38.9828 83.9772 38.654 84.7782C38.3252 85.5792 38.241 86.4597 38.412 87.3085C38.583 88.1573 39.0016 88.9365 39.6149 89.5477C40.2283 90.1589 41.0089 90.5748 41.8583 90.7428C42.7077 90.9109 43.5878 90.8236 44.3877 90.4921C45.1876 90.1605 45.8713 89.5994 46.3527 88.8797C46.8341 88.16 47.0915 87.3138 47.0925 86.4479C47.1095 85.8657 47.0071 85.2862 46.7916 84.7451C46.5761 84.2039 46.2521 83.7127 45.8395 83.3015C45.4269 82.8904 44.9345 82.5681 44.3927 82.3544C43.8508 82.1408 43.2709 82.0404 42.6888 82.0594V82.0594ZM42.6023 88.6244C42.1656 88.6375 41.7349 88.5199 41.3656 88.2865C40.9962 88.0532 40.705 87.7147 40.5294 87.3147C40.3538 86.9146 40.3017 86.4712 40.3799 86.0414C40.4581 85.6115 40.663 85.2149 40.9683 84.9023C41.2735 84.5897 41.6652 84.3755 42.0931 84.2872C42.521 84.1989 42.9655 84.2404 43.3696 84.4066C43.7737 84.5727 44.1189 84.8558 44.3609 85.2195C44.603 85.5832 44.7308 86.011 44.7279 86.4479C44.7398 86.7326 44.6933 87.0167 44.5913 87.2827C44.4893 87.5488 44.334 87.7911 44.1349 87.995C43.9359 88.1988 43.6972 88.3598 43.4337 88.468C43.1701 88.5763 42.8872 88.6295 42.6023 88.6244Z" fill="#3F93CB"/>
<path id="Vector_52" d="M72.8798 82.0593C72.0144 82.0653 71.1701 82.3273 70.4534 82.8124C69.7366 83.2975 69.1796 83.9839 68.8523 84.7851C68.5251 85.5863 68.4423 86.4664 68.6145 87.3145C68.7866 88.1627 69.206 88.9409 69.8197 89.5511C70.4334 90.1612 71.214 90.5761 72.0632 90.7434C72.9123 90.9106 73.7919 90.8228 74.5912 90.4909C75.3905 90.159 76.0736 89.598 76.5546 88.8785C77.0355 88.159 77.2927 87.3132 77.2937 86.4478C77.3107 85.8647 77.208 85.2843 76.9919 84.7424C76.7758 84.2006 76.4509 83.7089 76.0372 83.2976C75.6235 82.8863 75.1299 82.5642 74.5868 82.3512C74.0437 82.1382 73.4628 82.0388 72.8798 82.0593V82.0593ZM72.7933 88.6242C72.3571 88.6384 71.9266 88.522 71.5569 88.29C71.1872 88.0579 70.8953 87.7208 70.7184 87.3217C70.5415 86.9227 70.4879 86.48 70.5642 86.0502C70.6406 85.6205 70.8435 85.2234 71.147 84.9097C71.4505 84.596 71.8407 84.3801 72.2677 84.2896C72.6947 84.1991 73.1389 84.2381 73.5436 84.4017C73.9482 84.5653 74.2948 84.846 74.5389 85.2078C74.7831 85.5696 74.9136 85.996 74.9138 86.4325C74.927 86.7178 74.8818 87.0028 74.7808 87.27C74.6798 87.5371 74.5253 87.7808 74.3267 87.9861C74.1281 88.1914 73.8896 88.3539 73.6259 88.4636C73.3622 88.5733 73.0789 88.628 72.7933 88.6242V88.6242Z" fill="#3F93CB"/>
<path id="Vector_53" d="M48.3638 79.6392H56.9425V90.6231H54.4558V81.7241H50.8453V90.6231H48.3638V79.6392Z" fill="#3F93CB"/>
<path id="Vector_54" d="M80.0193 82.2627H81.5449C81.5449 82.2627 83.5789 86.702 83.7976 87.3021L86.2487 82.3797L87.6573 82.3135L89.6913 90.6329H87.7742L86.5029 85.8579C85.887 87.4641 85.1368 89.0154 84.2604 90.4956H83.345C83.345 90.4956 81.2449 86.5902 80.9753 85.8783L79.8312 90.638H77.9141L80.0193 82.2627Z" fill="#3F93CB"/>
<path id="Vector_55" d="M93.9374 79.6392H96.9275L100.375 90.6231H97.7513L96.3122 85.06C96.007 83.9616 95.7121 82.6648 95.4222 81.5003H95.3511C95.0866 82.6648 94.7917 83.9463 94.4866 85.06L93.0475 90.6231H90.5049L93.9374 79.6392ZM92.7627 86.077H98.0462V88.0094H92.7627V86.077Z" fill="#3F93CB"/>
<path id="Vector_56" d="M110.266 82.2627H112.503V84.9222H113.347C115.178 84.9222 116.581 85.6494 116.581 87.7394C116.581 89.8294 115.178 90.6176 113.347 90.6176H110.266V82.2627ZM113.246 88.7361C114.054 88.7361 114.441 88.4107 114.441 87.7191C114.441 87.0275 114.054 86.7478 113.246 86.7478H112.503V88.726L113.246 88.7361Z" fill="#3F93CB"/>
<path id="Vector_57" d="M119.506 86.58L121.357 87.2563L119.485 90.6227H116.973L119.506 86.58ZM121.85 87.8971H121.001C119.475 87.8971 117.685 87.114 117.685 85.029C117.685 82.9441 119.099 82.2627 120.858 82.2627H124.103V90.6227H121.845L121.85 87.8971ZM121.85 86.219V84.0832H121.138C120.324 84.0832 119.907 84.4188 119.907 85.1002C119.9 85.259 119.927 85.4174 119.988 85.5643C120.049 85.7111 120.141 85.8427 120.259 85.9496C120.377 86.0565 120.516 86.1361 120.668 86.1827C120.82 86.2292 120.981 86.2416 121.138 86.219H121.85Z" fill="#3F93CB"/>
<path id="Vector_58" d="M125.811 82.2627H128.288V85.2782H130.967V82.2627H133.444V90.6227H130.967V87.4648H128.288V90.6431H125.811V82.2627Z" fill="#3F93CB"/>
<path id="Vector_59" d="M16.5819 88.0754C16.294 88.3791 15.9302 88.6004 15.5281 88.7164C15.126 88.8324 14.7002 88.8389 14.2948 88.7352C13.8894 88.6315 13.519 88.4214 13.222 88.1266C12.9249 87.8318 12.712 87.463 12.6053 87.0584H18.9973C19.0871 86.4874 19.0574 85.9041 18.9102 85.3451C18.7631 84.7862 18.5016 84.2639 18.1423 83.8111C17.783 83.3584 17.3337 82.9851 16.8228 82.7148C16.312 82.4445 15.7506 82.2831 15.1742 82.2407C14.5977 82.1984 14.0188 82.2761 13.4739 82.4688C12.929 82.6616 12.43 82.9653 12.0085 83.3607C11.5869 83.7561 11.2519 84.2346 11.0246 84.766C10.7974 85.2974 10.6828 85.8702 10.6882 86.4482C10.6882 88.7569 12.2137 90.8265 14.8682 90.8265C17.2684 90.8265 17.9193 89.7179 18.6922 88.6399L16.5819 88.0754ZM14.8784 84.0683C15.322 84.0687 15.7565 84.1938 16.1324 84.4294C16.5083 84.665 16.8103 85.0015 17.004 85.4006H12.7477C12.9409 85.0023 13.2422 84.6662 13.6171 84.4307C13.992 84.1952 14.4254 84.0696 14.8682 84.0683H14.8784Z" fill="#3F93CB"/>
<path id="Vector_60" d="M141.214 87.9735C140.898 88.3782 140.464 88.675 139.972 88.823C139.479 88.971 138.954 88.9629 138.466 88.7998C137.979 88.6368 137.554 88.3268 137.25 87.9125C136.946 87.4981 136.778 86.9999 136.769 86.4861C136.76 85.9723 136.91 85.4684 137.199 85.0434C137.488 84.6185 137.901 84.2936 138.383 84.1132C138.864 83.9329 139.389 83.906 139.886 84.0364C140.383 84.1667 140.828 84.4478 141.158 84.841L143.025 84.0629C142.517 83.2586 141.766 82.6379 140.881 82.2917C139.995 81.9456 139.022 81.8921 138.104 82.1393C137.186 82.3865 136.371 82.9213 135.779 83.6653C135.187 84.4093 134.849 85.3233 134.814 86.2735C134.779 87.2237 135.05 88.16 135.586 88.9452C136.122 89.7303 136.896 90.3231 137.794 90.6366C138.691 90.9501 139.666 90.9678 140.574 90.6871C141.482 90.4064 142.277 89.8421 142.841 89.0769L141.214 87.9735Z" fill="#3F93CB"/>
<path id="Vector_61" d="M106.015 82.3647H104.489L101.057 90.6231H103.111L105.12 85.6599L107.144 90.6231H109.178L106.015 82.3647Z" fill="#3F93CB"/>
</g>
<defs>
<clipPath id="clip0_339_5831">
<rect width="142.715" height="100" fill="white" transform="translate(0.309082)"/>
</clipPath>
</defs>
</svg>
