<svg width="192" height="100" viewBox="0 0 192 100" fill="none" xmlns="http://www.w3.org/2000/svg">
<g id="&#208;&#158;&#208;&#177;&#208;&#181;&#208;&#180;&#208;&#190;&#208;&#178;" clip-path="url(#clip0_339_5743)">
<path id="Vector" fill-rule="evenodd" clip-rule="evenodd" d="M139.967 20.5903C140.658 18.7016 141.4 16.9646 142.193 15.2952C142.914 13.7137 143.857 12.2431 144.992 10.9275C145.298 10.5277 145.684 10.1965 146.125 9.95543C146.567 9.71431 147.054 9.56865 147.556 9.52787C148.314 9.52787 148.753 10.0675 148.888 11.0118C148.967 12.4766 148.761 13.9428 148.281 15.3289C147.792 17.1333 147.168 18.9714 146.594 20.8263C146.021 22.6813 145.077 24.57 144.335 26.054C143.555 27.5556 142.659 28.9934 141.653 30.3542C140.743 31.5852 139.967 32.226 139.073 32.1923C138.18 32.1586 137.825 31.6189 137.707 30.5059C137.609 28.9121 137.821 27.3142 138.331 25.8011C138.77 24.1316 139.309 22.4284 139.967 20.5903ZM148.399 7.6223C146.855 7.54636 145.316 7.86559 143.93 8.54979C142.365 9.31643 140.954 10.3622 139.765 11.6358C138.438 13.0854 137.304 14.7009 136.392 16.4419C135.342 18.3685 134.521 20.4117 133.947 22.5296C133.029 25.0438 132.94 27.7859 133.694 30.3542C134.01 31.2678 134.601 32.0612 135.386 32.6257C136.171 33.1902 137.112 33.4983 138.078 33.5076C139.673 33.6081 141.266 33.2698 142.682 32.5296C144.31 31.6859 145.763 30.5415 146.965 29.1569C148.298 27.7118 149.432 26.0955 150.338 24.3508C151.355 22.4578 152.153 20.455 152.716 18.3812C153.639 15.8913 153.686 13.1613 152.851 10.6409C152.491 9.74311 151.869 8.97475 151.066 8.43622C150.262 7.89768 149.315 7.61402 148.348 7.6223H148.399Z" fill="#DD2B1C"/>
<path id="Vector_2" fill-rule="evenodd" clip-rule="evenodd" d="M165.195 11.8044C166.881 9.46042 168.197 8.29685 169.36 8.43176C169.62 8.42685 169.872 8.5222 170.064 8.69803C170.255 8.87386 170.372 9.11668 170.389 9.37611C170.407 10.3329 170.199 11.2804 169.782 12.1417C169.388 13.2027 168.885 14.2199 168.281 15.1771C167.76 15.9385 167.197 16.6704 166.595 17.3694C165.905 18.1025 165.013 18.6133 164.031 18.8365C162.935 19.0894 162.446 18.6173 162.53 17.3188C162.975 15.2975 163.887 13.4087 165.195 11.8044ZM163.036 20.0675C163.63 19.5914 164.367 19.3299 165.127 19.3255C165.46 19.3346 165.778 19.4618 166.025 19.6843C166.273 19.9068 166.433 20.21 166.477 20.5397C166.656 21.516 166.574 22.5222 166.24 23.4571C166.038 24.1484 165.785 24.8398 165.532 25.5481C165.247 26.2496 164.926 26.9363 164.571 27.6054C164.19 28.3242 163.714 28.9879 163.154 29.5785C162.908 29.8748 162.589 30.1021 162.228 30.2381C161.868 30.374 161.478 30.4141 161.097 30.3542C160.321 30.2193 159.9 29.4941 159.815 28.1788C159.804 26.5493 160.185 24.941 160.928 23.4908C161.413 22.229 162.128 21.0682 163.036 20.0675ZM174.419 8.26312C174.011 7.72297 173.48 7.28813 172.87 6.99481C172.26 6.70148 171.588 6.55816 170.912 6.57678C169.183 6.43098 167.445 6.71484 165.853 7.40309C164.253 8.13821 162.805 9.16794 161.586 10.4385C160.261 11.8152 159.127 13.3636 158.213 15.0422C157.29 16.8353 156.534 18.7094 155.954 20.6409C154.875 24.3339 154.706 27.0152 155.414 28.6678C155.816 29.5032 156.449 30.2059 157.238 30.693C158.027 31.18 158.939 31.4311 159.866 31.4166C162.103 31.6126 164.335 30.9828 166.139 29.6459C168.067 28.3025 169.65 26.5229 170.76 24.452C171.907 22.3103 172.143 20.5903 171.401 19.393C171.18 18.8744 170.843 18.4133 170.416 18.045C169.989 17.6767 169.484 17.411 168.939 17.2682L170.423 16.1552C171.259 15.5411 172.038 14.8525 172.75 14.0979C173.47 13.2888 174.041 12.3581 174.436 11.3491C174.679 10.8705 174.804 10.3408 174.801 9.80408C174.798 9.26734 174.667 8.73905 174.419 8.26312Z" fill="#DD2B1C"/>
<path id="Vector_3" fill-rule="evenodd" clip-rule="evenodd" d="M78.5002 24.7894C79.0603 23.9876 79.8938 23.418 80.8442 23.1874C81.738 23.0187 82.2776 23.4741 82.5306 24.6545C82.6616 26.317 82.4196 27.9878 81.8223 29.5449C81.1478 31.6528 80.5238 33.609 79.9167 35.3965C79.381 37.035 78.7214 38.6303 77.9437 40.1688C77.3159 41.4957 76.5828 42.7702 75.7515 43.98C74.9083 45.1435 74.0651 45.6663 73.2894 45.6663C72.5137 45.6663 72.0247 44.8737 71.9404 43.4909C71.8742 41.7863 72.0618 40.0814 72.4969 38.4319C72.8974 36.6194 73.4619 34.8471 74.1832 33.1368C74.819 31.4795 75.5567 29.8631 76.3923 28.297C77.006 27.0766 77.7106 25.9041 78.5002 24.7894ZM77.1006 19.7304C77.6928 19.2628 78.3381 18.8666 79.023 18.5499C79.7313 18.2127 81.367 17.4875 83.8797 16.4083C85.5056 15.6899 86.9816 14.6716 88.2304 13.4066C89.6542 12.0349 90.645 10.2761 91.0803 8.34758C91.0803 8.21267 91.0803 8.17894 90.7936 8.34758C90.3044 8.61392 89.8557 8.94897 89.4614 9.34252C88.3853 10.2807 87.2156 11.1057 85.9707 11.8046C83.9775 12.8935 82.0464 14.0927 80.1866 15.3965C78.5085 16.5543 76.9989 17.939 75.7009 19.5112C74.897 20.5331 74.1645 21.6093 73.5087 22.7321C72.9522 23.6258 72.3619 24.7051 71.6368 26.0036C70.9019 27.3078 70.2431 28.6535 69.6638 30.0339C68.8476 32.0671 68.2264 34.1732 67.8088 36.324C67.1485 38.7172 67.2131 41.2525 67.9943 43.609C68.3185 44.5686 68.9545 45.3922 69.8011 45.9484C70.6476 46.5046 71.656 46.7615 72.6655 46.6781C74.252 46.6664 75.8108 46.2608 77.2017 45.4977C78.7478 44.6264 80.1245 43.4839 81.2658 42.125C82.5139 40.6873 83.5528 39.0807 84.3518 37.3526C85.2085 35.5351 85.8644 33.6295 86.308 31.6697C86.597 30.3859 86.7384 29.0733 86.7296 27.7574C86.7574 26.7019 86.55 25.6536 86.1225 24.6882C85.7872 23.8353 85.1987 23.1055 84.4361 22.5972C83.4702 22.0779 82.3765 21.844 81.2827 21.9226C79.4369 21.9758 77.6595 22.6334 76.2237 23.7945C74.4205 25.2548 72.8855 27.0181 71.6874 29.0053L71.5525 28.8535C71.9142 27.8997 72.3251 26.9654 72.7835 26.0542C73.2906 24.9581 73.8535 23.8887 74.4699 22.8501C74.8071 22.3442 75.1613 21.8552 75.4985 21.3661C75.9768 20.7792 76.5136 20.2424 77.1006 19.7641V19.7304Z" fill="#DD2B1C"/>
<path id="Vector_4" fill-rule="evenodd" clip-rule="evenodd" d="M47.303 19.3422C48.3206 17.3395 49.59 15.475 51.0804 13.7942C52.3034 12.1115 54.1052 10.9404 56.1394 10.5058C57.8258 10.2697 58.8882 11.4502 59.5121 14.0471C60.0063 17.1551 59.9263 20.3273 59.276 23.4063C58.5091 27.2372 57.3798 30.9865 55.9033 34.6036C54.5201 38.1734 52.8273 41.6154 50.8443 44.8903C49.106 47.8084 47.114 50.5678 44.8915 53.1365C42.8969 55.5323 40.0355 57.0418 36.932 57.3355C33.7617 57.6559 32.0248 56.1719 31.6538 52.9342C31.2909 49.2836 31.4843 45.5992 32.2271 42.0067C32.958 37.996 34.2762 34.115 36.1394 30.489C37.8258 27.0151 39.276 24.3675 40.3384 22.5294C41.3191 20.8894 42.448 19.3427 43.7111 17.9089C44.4825 17.1232 45.1614 16.2519 45.7347 15.3119C45.7679 15.2406 45.7851 15.1629 45.7851 15.0842C45.7851 15.0056 45.7679 14.9279 45.7347 14.8566C45.7347 14.7554 45.5829 14.6711 45.4649 14.7385C44.6729 15.1755 43.9222 15.6835 43.2221 16.2562C42.1765 17.0488 40.5914 18.3642 38.5172 20.1854C35.9229 22.5004 33.6133 25.1157 31.6369 27.9763C28.7415 31.7318 26.5166 35.9592 25.0602 40.4721C23.3738 45.7672 23.3738 50.028 25.0602 53.2546C25.8653 54.8052 27.073 56.1105 28.5567 57.0333C30.0403 57.9561 31.745 58.4625 33.4919 58.4991C37.1465 58.8436 40.8221 58.1108 44.0652 56.3911C47.4962 54.5095 50.6324 52.1345 53.3738 49.3422C56.4353 46.2945 59.1293 42.8987 61.4008 39.2242C63.6733 35.5673 65.379 31.5874 66.4598 27.4198C67.5828 23.2809 67.1819 18.8764 65.33 15.0083C64.6432 13.4486 63.5561 12.0982 62.1789 11.0942C60.8018 10.0903 59.1836 9.46836 57.4885 9.29165C54.1158 9.02184 50.9455 10.978 47.7752 15.0083C44.6049 19.0387 42.8173 24.6374 42.4969 31.7537C42.4969 32.1416 42.4969 32.2933 42.8679 32.3271C43.2389 32.3608 43.3907 31.9055 43.5593 30.9611C43.728 30.0168 43.8797 29.1567 44.0146 28.3473C44.3349 27.072 44.7291 25.8164 45.1951 24.5868C45.7951 22.7991 46.4989 21.0479 47.303 19.3422Z" fill="#DD2B1C"/>
<path id="Vector_5" fill-rule="evenodd" clip-rule="evenodd" d="M100.052 20.3374C101.417 18.3644 102.564 17.2514 103.424 16.9648C104.284 16.6781 104.908 16.9648 105.111 17.8922C105.335 19.088 105.188 20.3239 104.689 21.4336C104.266 22.7441 103.659 23.9876 102.885 25.1266C101.831 26.6174 100.34 27.7431 98.6181 28.3476C97.7075 28.3476 97.3534 27.5718 97.5726 25.8686C97.9447 23.8532 98.7948 21.9564 100.052 20.3374ZM109.124 16.8636C108.693 16.2707 108.104 15.811 107.424 15.5367C106.744 15.2624 106.001 15.1846 105.279 15.3121C103.486 15.456 101.769 16.0986 100.321 17.1671C98.7835 18.2827 97.365 19.5542 96.0886 20.9614C94.782 22.4161 93.5709 23.9539 92.463 25.5651C91.418 27.0881 90.6211 28.7672 90.1021 30.5398C89.6355 31.972 89.3965 33.4686 89.3938 34.9749C89.3739 36.1312 89.592 37.2792 90.0346 38.3476C90.4337 39.3063 91.1316 40.1107 92.0245 40.641C93.268 41.2586 94.6905 41.4141 96.038 41.0794C97.6065 40.7867 99.0916 40.1535 100.389 39.2245C101.871 38.0409 103.123 36.5946 104.082 34.958C105.279 33.0187 105.92 31.9395 106.055 31.5853C106.392 30.8771 106.392 30.3543 106.224 30.1519C106.055 29.9496 105.802 30.1519 105.397 30.6578C104.992 31.1637 104.369 32.1756 103.458 33.6427C102.781 34.7579 101.952 35.7738 100.996 36.6612C100.239 37.2364 99.3158 37.5501 98.3652 37.555C97.9911 37.639 97.6033 37.6419 97.2281 37.5633C96.8528 37.4848 96.4988 37.3267 96.1898 37.0997C95.7695 36.5748 95.5221 35.9327 95.4815 35.2616C95.3821 34.4721 95.3821 33.6733 95.4815 32.8838C95.5245 32.0905 95.8133 31.3302 96.3078 30.7084C98.4192 30.1102 100.473 29.3258 102.446 28.3644C103.982 27.5265 105.405 26.495 106.679 25.2953C108.021 24.134 109.024 22.6304 109.579 20.9445C109.826 20.2757 109.913 19.5586 109.834 18.8503C109.755 18.1419 109.512 17.4617 109.124 16.8636Z" fill="#DD2B1C"/>
<path id="Vector_6" fill-rule="evenodd" clip-rule="evenodd" d="M126.358 13.3897C126.673 14.0822 126.744 14.8607 126.561 15.5988C126.18 17.8114 125.616 19.9886 124.874 22.1081C124.132 24.3678 123.323 26.4588 122.53 28.3138C121.759 30.0062 120.886 31.6506 119.917 33.2379C119.04 34.5701 118.23 35.2278 117.438 35.2278C116.645 35.2278 116.24 34.4689 116.173 33.0355C116.262 30.7152 116.642 28.4151 117.303 26.189C118.045 23.121 119.257 20.1859 120.895 17.4875C122.581 14.7893 123.762 13.3391 124.622 13.103C125.482 12.8669 126.106 12.9344 126.358 13.3897ZM126.662 1.92256C124.976 0.5229 123.964 -0.101046 123.559 0.0169975C123.154 0.135041 123.154 0.337402 123.559 0.556627C124.171 0.927445 124.737 1.36893 125.245 1.87197C126.117 2.92406 126.698 4.18548 126.932 5.53133C127.402 7.31953 127.494 9.18619 127.202 11.0119C127.202 11.4167 126.78 11.5853 126.122 11.5684C125.08 11.5263 124.039 11.6807 123.053 12.0237C120.949 12.8551 119.075 14.1794 117.589 15.8855C115.191 18.4331 113.495 21.559 112.665 24.958C111.603 28.8028 111.485 31.7033 112.261 33.6595C112.582 34.5654 113.188 35.3435 113.987 35.8782C114.785 36.4128 115.736 36.6756 116.696 36.6274C118.527 36.6722 120.317 36.0757 121.755 34.9411C123.528 33.5619 125.042 31.8772 126.224 29.9664C127.59 27.8476 128.721 25.5857 129.596 23.221C130.524 20.5716 131.092 17.8093 131.283 15.0086C131.489 12.4028 131.197 9.78168 130.423 7.28513C129.7 5.17867 128.396 3.31958 126.662 1.92256Z" fill="#DD2B1C"/>
<path id="Vector_7" fill-rule="evenodd" clip-rule="evenodd" d="M7.47144 80.0167C4.31186 86.3347 2.04187 93.0595 0.726074 99.9999C49.7536 65.2275 113.492 45.0589 191.94 39.494C129.995 38.4147 68.5057 51.9223 7.47144 80.0167Z" fill="#DD2B1C"/>
<path id="Vector_8" fill-rule="evenodd" clip-rule="evenodd" d="M187.134 8.68474H187.589C188.146 8.68474 188.483 8.44866 188.483 8.07766C188.483 7.70667 188.18 7.48744 187.657 7.48744C187.483 7.47207 187.308 7.47207 187.134 7.48744V8.68474ZM186.021 6.8635C186.519 6.80259 187.02 6.77443 187.522 6.77918C188.105 6.71187 188.695 6.82987 189.208 7.11645C189.36 7.20965 189.483 7.34172 189.566 7.4989C189.649 7.65608 189.689 7.83263 189.68 8.01021C189.662 8.25245 189.567 8.4826 189.41 8.66748C189.252 8.85236 189.04 8.98241 188.803 9.03888C188.968 9.10942 189.114 9.21807 189.228 9.35587C189.342 9.49367 189.422 9.65668 189.461 9.83145C189.63 10.3205 189.782 10.877 189.866 11.0288H188.702C188.563 10.7126 188.45 10.3855 188.365 10.0507C188.23 9.51105 188.011 9.37614 187.539 9.35928H187.201V11.0456H186.088L186.021 6.8635Z" fill="#DD2B1C"/>
<path id="Vector_9" fill-rule="evenodd" clip-rule="evenodd" d="M187.64 5.58178C186.973 5.58178 186.321 5.77959 185.766 6.15018C185.212 6.52078 184.779 7.04752 184.524 7.6638C184.269 8.28007 184.202 8.95821 184.332 9.61244C184.462 10.2667 184.783 10.8676 185.255 11.3393C185.727 11.811 186.328 12.1322 186.982 12.2623C187.636 12.3925 188.314 12.3257 188.931 12.0704C189.547 11.8151 190.074 11.3829 190.444 10.8282C190.815 10.2736 191.013 9.62152 191.013 8.95447C191.013 8.05997 190.657 7.20212 190.025 6.56962C189.392 5.93712 188.535 5.58178 187.64 5.58178ZM191.94 8.95447C191.94 9.80496 191.688 10.6364 191.215 11.3435C190.743 12.0507 190.071 12.6018 189.286 12.9273C188.5 13.2528 187.635 13.3379 186.801 13.172C185.967 13.0061 185.201 12.5965 184.599 11.9951C183.998 11.3938 183.588 10.6275 183.422 9.79339C183.257 8.95924 183.342 8.09462 183.667 7.30886C183.993 6.52311 184.544 5.85151 185.251 5.37901C185.958 4.9065 186.79 4.6543 187.64 4.6543C188.206 4.65429 188.767 4.76608 189.29 4.98323C189.812 5.20039 190.287 5.51865 190.687 5.91974C191.086 6.32084 191.403 6.79688 191.618 7.32055C191.833 7.84421 191.942 8.40521 191.94 8.97133V8.95447Z" fill="#DD2B1C"/>
</g>
<defs>
<clipPath id="clip0_339_5743">
<rect width="191.214" height="100" fill="white" transform="translate(0.726074)"/>
</clipPath>
</defs>
</svg>
