<svg width="154" height="100" viewBox="0 0 154 100" fill="none" xmlns="http://www.w3.org/2000/svg">
<g id="Ameli" clip-path="url(#clip0_532_7961)">
<path id="Vector" d="M41.582 30.7454V36.8419C42.3734 35.263 43.4286 33.8595 44.7475 32.5875C46.0665 31.3595 47.5613 30.7016 49.3199 30.7016C50.9906 30.7016 52.2217 31.0525 53.101 31.7981C53.9803 32.4998 54.5958 33.2893 54.9915 34.1665C55.2113 34.7367 55.4312 35.3069 55.5191 35.8332C55.651 36.3595 55.6949 36.7981 55.7389 37.1051C55.9148 36.7542 56.1346 36.3595 56.3984 35.877C56.6622 35.3946 57.0139 34.9121 57.3656 34.3858C58.0691 33.4647 58.9044 32.6314 59.9596 31.8858C61.0148 31.1402 62.2018 30.7454 63.5208 30.7454C65.6751 30.7454 67.2139 31.3156 68.0932 32.4998C68.9725 33.684 69.5441 34.956 69.8079 36.3595C69.9398 37.0174 70.0277 37.6753 70.0277 38.2454C70.0277 38.8595 70.0717 39.3858 70.0717 39.9121V61.6665H72.5777V63.1139H60.6631V61.6665H62.8174V42.1928C62.8174 39.5174 62.6415 37.6314 62.2898 36.5349C61.938 35.4384 61.2786 34.9121 60.2234 34.9121C59.0803 34.9121 58.0691 35.57 57.1458 36.8858C56.2225 38.2016 55.7389 39.7805 55.7389 41.6665V61.6226H57.8932V63.07H46.3303V61.6226H48.4846V42.149C48.4846 39.4735 48.3088 37.5876 47.957 36.4911C47.6053 35.3946 46.9458 34.8683 45.8906 34.8683C44.7475 34.8683 43.7363 35.5261 42.8131 36.8419C41.8898 38.1577 41.4062 39.7367 41.4062 41.6226V61.5788H43.5605V63.0262H33.6682H31.8217H18.1924V61.4472H22.3251L19.0717 49.2981H8.30012L7.50874 52.3682C7.46478 52.456 7.42082 52.6753 7.33288 52.9823C7.24495 53.2893 7.20099 53.6402 7.11306 54.0349C7.11306 54.0349 7.11306 54.0349 7.11306 54.0788C7.11306 54.1226 7.11306 54.1226 7.11306 54.1665C7.02513 54.5612 6.93719 54.9121 6.84926 55.263C6.76133 55.6139 6.76133 55.8332 6.76133 55.9647C6.76133 58.377 7.11306 59.8244 7.77254 60.3507C8.43202 60.877 9.48719 61.2279 10.9381 61.3595C11.026 61.3595 11.07 61.3595 11.1579 61.4033C11.2458 61.4472 11.3337 61.4472 11.4217 61.4472V63.0262H0.166504V61.4472C1.83719 61.3595 2.98029 60.7454 3.63978 59.6051C4.29926 58.4647 4.87082 57.0174 5.35444 55.263C5.44237 54.9121 5.48633 54.6051 5.57426 54.3419C5.66219 54.0349 5.75013 53.7279 5.79409 53.4209L15.8622 14.9998H18.632L30.6346 61.5788H33.8001H34.3277V33.07H31.7337V31.6226H37.1855C38.0648 31.6226 38.8562 31.5349 39.5596 31.3595C40.307 31.3156 40.9665 31.0963 41.582 30.7454ZM134.349 71.0525C134.261 71.184 134.217 71.3595 134.173 71.4911C134.129 71.6665 134.173 71.8419 134.305 71.9297C134.437 72.0174 134.613 72.0612 134.789 71.9735C135.053 71.7981 135.316 71.6226 135.404 71.5788C136.328 71.0086 137.515 70.0875 138.834 69.0788C139.098 68.8595 139.449 68.9033 139.669 69.1665C139.845 69.3858 139.845 69.6928 139.669 69.8682C139.01 70.8332 138.394 71.7104 138.086 72.3683C138.086 72.3683 138.086 72.3683 138.086 72.4121C138.042 72.4998 138.042 72.6314 138.13 72.6753C138.218 72.763 138.35 72.763 138.438 72.6753C139.317 72.1051 140.636 70.4823 141.955 68.8156C142.351 68.3332 142.703 67.8507 143.142 67.3683C143.274 67.1928 143.45 67.149 143.67 67.149C143.978 67.1928 144.373 67.1928 144.725 67.2367C146.484 67.3682 147.539 67.456 148.198 68.7718C148.33 69.0349 148.242 69.3419 148.023 69.4735L144.066 73.1577V73.2016C144.066 73.2454 144.11 73.2893 144.154 73.377C144.242 73.4647 144.417 73.5525 144.593 73.6402C144.945 73.7718 145.385 73.8156 145.868 73.684C146.835 73.2454 148.33 72.3683 149.605 71.4911C149.561 71.0086 149.561 70.5261 149.693 70.0875C149.825 69.4735 150.133 68.9472 150.617 68.4209C151.1 67.9823 151.672 67.8068 152.199 67.8946C152.463 67.9384 152.683 68.0261 152.859 68.1577C153.035 68.2893 153.21 68.4647 153.298 68.684V68.7279C153.43 69.0788 153.43 69.5174 153.167 69.9998C152.859 70.5262 151.979 71.3156 150.836 72.1051C151.056 75.3507 150.089 76.1402 149.254 76.6665C149.21 76.7104 149.122 76.7104 149.078 76.6665C149.034 76.6226 148.99 76.5349 149.034 76.4911C149.341 75.8332 149.517 75.4823 149.649 72.9384C148.462 73.7279 147.187 74.4735 146.308 74.8683C146.264 74.8683 146.264 74.9121 146.22 74.9121C145.473 75.1314 144.725 75.0876 144.154 74.8683C143.802 74.7367 143.494 74.5612 143.274 74.2981C143.01 74.0349 142.879 73.684 142.835 73.377C142.835 73.1139 142.923 72.8068 143.098 72.5437C143.098 72.4998 143.142 72.4998 143.186 72.456L146.879 69.0349C146.44 68.6402 145.736 68.5963 144.637 68.5086C144.417 68.5086 144.154 68.4647 143.89 68.4647C143.582 68.8156 143.23 69.2542 142.923 69.6928C140.988 72.1051 139.01 74.5174 137.559 74.1665H137.515C136.635 73.8595 136.591 73.1139 137.031 72.1051C136.679 72.3244 136.372 72.5437 136.108 72.7191C134.877 73.4647 133.954 73.7279 133.47 73.2016C132.81 72.4998 132.898 71.6226 133.426 70.6577C133.822 69.956 135.053 68.9472 135.844 68.1139C135.888 68.07 135.932 68.07 136.02 68.07C136.064 68.07 136.108 68.1577 136.108 68.2016C136.108 69.1226 135.316 69.2981 134.349 71.0525ZM150.66 70.6139C151.32 70.0875 151.848 69.6051 152.023 69.3419C152.067 69.2542 152.111 69.1665 152.067 69.1226C152.067 69.1226 152.067 69.1226 152.023 69.0788C151.979 69.0349 151.935 69.0349 151.848 69.0349C151.672 68.9911 151.452 69.0788 151.276 69.2542C150.968 69.5612 150.748 69.956 150.66 70.3068C150.66 70.3946 150.66 70.4823 150.66 70.6139ZM118.214 73.684C118.698 72.5875 119.401 71.7981 120.324 71.3156C121.291 70.7893 122.523 70.5262 123.929 70.7016C124.369 69.9121 124.853 69.2104 125.336 68.4209C124.413 68.4647 123.578 68.5525 122.698 68.6402C120.06 68.8595 117.554 69.0788 113.993 68.9472C112.41 68.9033 109.816 68.9472 106.959 69.2542C107.179 74.2104 100.364 73.9033 99.1768 70.5261C99.001 70.57 98.7812 70.6139 98.6053 70.6577C94.7803 71.7104 93.3734 72.1051 91.395 74.8683C91.1751 71.8858 94.6484 70.4823 98.2975 69.4735C98.5174 69.4297 98.7812 69.3419 99.001 69.2981C99.001 69.2981 99.001 69.2981 99.001 69.2542C100.144 46.1402 101.683 23.0261 103.002 -0.0878906C104.277 22.6753 105.948 45.2191 106.871 67.9823C109.773 67.7191 112.41 67.6314 113.993 67.6753C117.466 67.8068 119.973 67.5876 122.566 67.3683C123.666 67.2805 124.809 67.1928 126.084 67.1051C128.546 62.9823 130.788 59.8683 132.854 57.9823C135.097 55.877 137.163 55.1753 139.01 55.877L139.141 55.9209L139.229 56.0086C139.625 56.4472 139.889 56.9297 140.021 57.456C140.241 58.3332 140.065 59.2104 139.625 60.0437C139.185 60.8332 138.526 61.6226 137.647 62.4121C134.789 64.9998 129.909 67.3244 126.831 68.1577L126.787 68.2016L126.391 68.8595C125.952 69.5174 125.556 70.1314 125.16 70.8332C126.26 71.0963 127.842 71.4911 131.535 71.6665C131.623 71.6665 131.667 71.7104 131.667 71.7981C131.667 71.8858 131.623 71.9297 131.579 71.9735C130.744 72.3244 129.205 72.5437 128.15 72.456C126.963 72.3683 125.732 72.1928 124.501 71.9735C123.666 73.5963 122.742 75.7454 121.335 79.6051C119.973 83.4647 117.203 90.263 112.938 94.956C108.541 99.7367 102.65 102.149 95.0001 96.7981C99.7044 97.9823 103.178 102.324 112.059 94.1665C116.191 89.649 118.873 82.9823 120.236 79.2542C121.555 75.6139 122.435 73.4209 123.27 71.8419C122.303 71.7981 121.511 71.9296 120.896 72.2805C120.236 72.6314 119.709 73.2454 119.313 74.1226C119.181 74.3858 118.873 74.5174 118.61 74.4297L118.522 74.3858C118.39 74.3419 118.258 74.2104 118.214 74.0788C118.126 73.9911 118.126 73.8595 118.214 73.684ZM101.727 68.7718C102.606 68.5963 103.529 68.4647 104.409 68.3332C104.277 66.5349 103.573 64.8682 103.134 63.1139C102.562 64.8244 101.727 66.5788 101.727 68.4209C101.727 68.5525 101.727 68.684 101.727 68.7718ZM104.277 69.5612C103.529 69.649 102.782 69.7805 102.035 69.9121C102.606 71.0086 103.881 70.877 104.277 69.5612ZM133.69 58.9033C131.887 60.57 129.909 63.2016 127.754 66.7104C130.656 65.7016 134.481 63.7718 136.855 61.6226C137.603 60.9647 138.218 60.263 138.57 59.5612C138.878 58.9472 139.01 58.377 138.878 57.8068C138.79 57.5437 138.658 57.2367 138.438 56.9735C137.119 56.5349 135.492 57.1928 133.69 58.9033ZM118.214 15.9647C120.412 15.9647 122.171 17.8946 122.171 20.3068C122.171 22.7191 120.412 24.649 118.214 24.649C116.016 24.649 114.257 22.7191 114.257 20.3068C114.257 17.8946 116.016 15.9647 118.214 15.9647ZM114.653 33.2016H112.059V31.7542H117.554C118.434 31.7542 119.225 31.6665 119.929 31.4911C120.632 31.3156 121.248 31.0525 121.907 30.7454V61.7104H124.413V63.1577H112.147V61.7104H114.653V33.2016ZM95.22 54.9998L96.0553 55.7893C95.0881 57.9823 93.901 59.9121 92.4062 61.5788C90.9553 63.2454 89.1527 64.0349 87.0863 64.0349C83.745 64.0349 80.8432 62.456 78.2932 59.2542C75.7872 56.0525 74.5122 52.1051 74.5122 47.2805C74.5122 42.6753 75.6553 38.7718 77.8975 35.5261C80.1398 32.2805 82.6458 30.7016 85.4596 30.7016C88.5372 30.7016 91.1312 32.1489 93.2415 35.0437C95.3519 37.9384 96.451 41.6665 96.4949 46.2279H82.47V52.763C82.47 56.3595 82.8656 58.9033 83.701 60.3946C84.4924 61.8858 85.7234 62.6753 87.2622 62.6753C88.757 62.6753 90.076 62.149 91.2191 61.0525C92.3182 59.956 93.2855 58.7718 94.0329 57.4121C94.2527 57.0174 94.5165 56.6226 94.6924 56.184C94.8682 55.7893 95.0881 55.3946 95.22 54.9998ZM82.47 44.8682H89.3286V41.4911C89.3286 41.0963 89.3286 40.7454 89.3286 40.3507C89.3286 39.956 89.3286 39.6051 89.2846 39.2104C89.1967 37.456 88.9768 35.8332 88.4932 34.3858C88.0536 32.9384 87.1743 32.1928 85.8113 32.1928C84.7122 32.1928 83.9208 32.6753 83.4812 33.684C82.9975 34.6928 82.7337 35.8332 82.5579 37.0612C82.5139 37.6314 82.5139 38.2016 82.47 38.7279C82.47 39.2981 82.426 39.7805 82.426 40.2191V44.8682H82.47ZM18.8958 47.763L13.7518 28.2893L8.65185 47.763H18.8958Z" fill="#6D6E70"/>
</g>
<defs>
<clipPath id="clip0_532_7961">
<rect width="153" height="100" fill="white" transform="translate(0.166504)"/>
</clipPath>
</defs>
</svg>
