<svg width="180" height="81" viewBox="0 0 180 81" fill="none" xmlns="http://www.w3.org/2000/svg">
<g id="&#208;&#158;&#208;&#183;&#208;&#190;&#209;&#128;&#208;&#189;&#209;&#139;&#208;&#181; &#208;&#177;&#208;&#181;&#208;&#187;&#208;&#186;&#208;&#184;" clip-path="url(#clip0_339_5798)">
<g id="&#208;&#161;&#208;&#187;&#208;&#190;&#208;&#185; 2">
<g id="Work">
<path id="Vector" d="M55.3357 65.353C57.2241 65.3549 59.0655 64.7621 60.6011 63.658C62.1366 62.5539 63.2889 60.994 63.896 59.1977C64.5031 57.4014 64.5343 55.4592 63.9853 53.6442C63.4363 51.8292 62.3347 50.2327 60.8355 49.0793C54.4468 44.0085 46.7763 40.8292 38.6869 39.8993C40.1503 41.2087 41.5373 42.6019 42.8408 44.072C43.9125 45.2904 45.3747 47.2516 45.3747 47.2516C40.5346 45.5536 35.4392 44.7066 30.3126 44.748C32.7089 46.2216 34.9643 47.9146 37.0503 49.8054C39.0017 51.5954 40.7972 53.5498 42.4171 55.6472C40.21 57.9667 37.3761 59.5874 34.264 60.31C31.1519 61.0326 27.8974 60.8256 24.9009 59.7145C21.9044 58.6033 19.2966 56.6364 17.3983 54.0559C15.5001 51.4753 14.3942 48.3936 14.2167 45.1899C14.0392 41.9862 14.7979 38.8003 16.3994 36.0241C18.0008 33.2479 20.3753 31.0025 23.2305 29.5642C26.0858 28.1259 29.2973 27.5574 32.47 27.9287C35.6427 28.3 38.6382 29.5948 41.0878 31.6539C41.146 31.7123 41.254 31.7624 41.3122 31.8208C43.7614 33.8659 46.8505 34.9771 50.0353 34.9587C52.6337 34.9555 55.1777 34.2114 57.3717 32.813C59.5656 31.4145 61.3193 29.4192 62.4288 27.059C63.5383 24.6988 63.9581 22.0707 63.6392 19.4802C63.3204 16.8898 62.2761 14.4435 60.6278 12.4259C60.2954 12.042 59.9714 11.7081 59.6391 11.3242C56.2292 7.70874 52.0796 4.87872 47.4762 3.02916C42.8728 1.17959 37.925 0.354434 32.9736 0.610528C28.0222 0.866622 23.1849 2.19788 18.7949 4.5126C14.4049 6.82731 10.5666 10.0705 7.54441 14.0187C4.52219 17.9669 2.38788 22.5262 1.2885 27.3827C0.189128 32.2392 0.150821 37.2774 1.17622 42.1502C2.20162 47.023 4.26635 51.6146 7.22818 55.6087C10.19 59.6028 13.9786 62.9045 18.3328 65.2863C23.3473 68.0346 28.9702 69.4697 34.6825 69.459C46.8202 69.459 50.9824 80.5335 50.9824 80.5335C51.232 78.1968 50.9741 75.8336 50.2264 73.6067C49.5344 71.612 48.4526 69.7762 47.0445 68.2072C48.9117 68.84 50.6629 69.7759 52.2286 70.9779C53.9998 72.3804 55.4219 74.1775 56.3825 76.2272C56.4909 73.5914 55.9185 70.9723 54.7209 68.6245C53.9914 67.1665 53.0288 65.8387 51.8713 64.6937C52.9714 65.1413 54.1489 65.3654 55.3357 65.353ZM57.1551 50.8736C57.2816 50.7464 57.4319 50.6455 57.5972 50.5767C57.7626 50.5079 57.9398 50.4724 58.1188 50.4724C58.2978 50.4724 58.475 50.5079 58.6404 50.5767C58.8057 50.6455 58.956 50.7464 59.0825 50.8736C59.6142 51.3994 60.3868 53.0434 59.8468 53.5775C59.3068 54.1116 57.6868 53.3355 57.1551 52.8014C57.0288 52.675 56.9285 52.5248 56.8601 52.3594C56.7917 52.194 56.7565 52.0166 56.7565 51.8375C56.7565 51.6584 56.7917 51.481 56.8601 51.3156C56.9285 51.1502 57.0288 51 57.1551 50.8736ZM50.0353 54.8461C50.293 54.5932 50.6389 54.4517 50.999 54.4517C51.3592 54.4517 51.7051 54.5932 51.9627 54.8461C52.4944 55.3802 53.2671 57.0242 52.7354 57.5583C52.2037 58.0925 50.5753 57.3163 50.0353 56.7822C49.7836 56.5234 49.6427 56.1759 49.6427 55.8141C49.6427 55.4523 49.7836 55.1049 50.0353 54.8461ZM50.7996 61.9898C50.7407 61.9499 50.6851 61.9053 50.6335 61.8563C50.5242 61.7379 50.4514 61.5902 50.424 61.4311C50.3965 61.272 50.4156 61.1084 50.479 60.96C50.5423 60.8116 50.6471 60.6848 50.7807 60.595C50.9143 60.5053 51.0709 60.4563 51.2316 60.4542C51.4336 60.4545 51.6285 60.5287 51.78 60.6629L51.8381 60.7213C52.9441 61.7383 54.3362 62.3869 55.8235 62.5781C57.3108 62.7693 58.8205 62.4939 60.1459 61.7895C58.8623 62.9133 57.2264 63.5483 55.5241 63.5834C53.8217 63.6184 52.1613 63.0514 50.8329 61.9815L50.7996 61.9898Z" fill="#EA580C"/>
<path id="Vector_2" d="M90.6436 47.3937C91.5515 45.022 91.5515 42.3963 90.6436 40.0246C90.2125 38.9313 89.5685 37.9354 88.7494 37.0953C87.9278 36.26 86.9436 35.6038 85.8583 35.1675C83.4953 34.2664 80.8855 34.2664 78.5225 35.1675C77.4357 35.6047 76.4511 36.2641 75.6314 37.1037C74.8239 37.9466 74.1863 38.9385 73.7538 40.0246C72.8568 42.3983 72.8568 45.02 73.7538 47.3937C74.1861 48.4824 74.8237 49.477 75.6314 50.323C76.4523 51.1571 77.4368 51.8108 78.5225 52.2424C80.8855 53.1435 83.4953 53.1435 85.8583 52.2424C86.9436 51.8062 87.9278 51.1499 88.7494 50.3146C89.5685 49.4745 90.2125 48.4786 90.6436 47.3853M88.442 43.6966C88.4482 44.5744 88.2933 45.4457 87.9851 46.267C87.6973 47.0283 87.2561 47.7215 86.6891 48.3033C86.1244 48.8915 85.4459 49.3573 84.6952 49.672C83.0965 50.3216 81.3091 50.3216 79.7105 49.672C78.9693 49.357 78.2995 48.8943 77.7416 48.3117C77.1854 47.7149 76.7457 47.0185 76.4455 46.2587C76.126 45.4432 75.968 44.5729 75.9803 43.6966C75.9744 42.8228 76.1352 41.956 76.4539 41.1429C76.7519 40.382 77.1918 39.6852 77.7499 39.0899C78.3062 38.5075 78.9766 38.0471 79.7188 37.7379C81.3204 37.1037 83.1019 37.1037 84.7035 37.7379C85.4614 38.0442 86.148 38.5049 86.72 39.0909C87.2919 39.6769 87.7368 40.3756 88.0266 41.1429C88.3185 41.9617 88.4592 42.8271 88.442 43.6966Z" fill="#1D1D1B"/>
<path id="Vector_3" d="M99.9154 49.7385C99.3944 50.0668 98.7847 50.2243 98.1707 50.1891C97.6025 50.2011 97.0376 50.0989 96.5092 49.8887C96.0723 49.7129 95.6679 49.4647 95.3128 49.1543C95.0517 48.896 94.7129 48.7317 94.3491 48.687C94.1703 48.6598 93.9878 48.6686 93.8123 48.7131C93.6369 48.7575 93.472 48.8365 93.3273 48.9457C93.1643 49.0566 93.0292 49.204 92.9326 49.3764C92.836 49.5487 92.7805 49.7413 92.7707 49.9388C92.7586 50.1332 92.7887 50.328 92.859 50.5096C92.9293 50.6911 93.0381 50.8552 93.1777 50.9903C93.5667 51.3651 94.0023 51.6877 94.4738 51.9501C94.9984 52.2419 95.5563 52.4689 96.1353 52.626C96.7902 52.7896 97.4627 52.8709 98.1375 52.8681C99.0291 52.8822 99.9132 52.7028 100.73 52.3423C101.454 52.0293 102.086 51.5351 102.566 50.9069C103.024 50.2908 103.267 49.5395 103.255 48.7704C103.265 48.1588 103.088 47.5589 102.748 47.0512C102.43 46.579 101.998 46.1946 101.494 45.9329C101.856 45.704 102.165 45.3994 102.399 45.04C102.708 44.5728 102.87 44.0233 102.865 43.4627C102.867 42.7605 102.633 42.0781 102.2 41.5265C101.742 40.9396 101.145 40.4775 100.464 40.1829C99.6503 39.8535 98.7801 39.6891 97.9032 39.6992C97.0263 39.7092 96.1601 39.8934 95.3544 40.2413C94.5963 40.5576 93.9158 41.036 93.3605 41.6434C93.1145 41.9138 92.9705 42.2622 92.9534 42.6281C92.9425 42.8124 92.9797 42.9963 93.0613 43.1618C93.1429 43.3272 93.2661 43.4683 93.4187 43.5712C93.707 43.7814 94.0603 43.882 94.4156 43.8549C94.7854 43.8147 95.1266 43.6359 95.371 43.3542C95.668 43.0387 96.0353 42.7984 96.4427 42.6532C96.9523 42.4734 97.4895 42.3858 98.0295 42.3944C98.5695 42.3595 99.1076 42.4874 99.5747 42.7616C99.7168 42.8479 99.8334 42.9708 99.9123 43.1175C99.9911 43.2643 100.03 43.4295 100.023 43.5962C100.041 43.9213 99.9337 44.2407 99.7243 44.4892C99.6183 44.6027 99.4893 44.6921 99.346 44.7511C99.2026 44.8101 99.0483 44.8375 98.8935 44.8313H97.6889C97.3228 44.821 96.9635 44.9325 96.667 45.1485C96.5207 45.2542 96.4015 45.3933 96.3192 45.5543C96.2368 45.7154 96.1938 45.8938 96.1935 46.0748C96.1948 46.2548 96.2374 46.432 96.3181 46.5927C96.3988 46.7534 96.5154 46.8932 96.6587 47.0012C96.9535 47.2284 97.3174 47.3463 97.6889 47.335H98.8686C99.2848 47.3444 99.6857 47.4943 100.007 47.7606C100.14 47.8741 100.246 48.0164 100.316 48.1768C100.387 48.3373 100.42 48.5117 100.414 48.687C100.419 48.8965 100.37 49.1038 100.271 49.2883C100.172 49.4727 100.026 49.6279 99.8489 49.7385" fill="#1D1D1B"/>
<path id="Vector_4" d="M116.689 49.6469C117.249 48.6252 117.535 47.4749 117.52 46.3087C117.547 45.1253 117.26 43.9559 116.689 42.9205C116.154 41.9402 115.364 41.124 114.404 40.5587C113.381 40.0107 112.24 39.7241 111.081 39.7241C109.922 39.7241 108.781 40.0107 107.758 40.5587C106.798 41.1044 106.005 41.9039 105.465 42.8704C104.897 43.9069 104.61 45.0755 104.634 46.2587C104.614 47.4255 104.9 48.577 105.465 49.5969C106 50.567 106.794 51.3677 107.758 51.9086C108.782 52.4537 109.923 52.7387 111.081 52.7387C112.24 52.7387 113.381 52.4537 114.404 51.9086C115.357 51.3777 116.146 50.5957 116.689 49.6469ZM111.064 50.1226C110.403 50.1333 109.751 49.9631 109.179 49.6302C108.638 49.3048 108.194 48.8411 107.891 48.2866C107.582 47.6645 107.422 46.9788 107.422 46.2837C107.422 45.5885 107.582 44.9029 107.891 44.2808C108.197 43.713 108.654 43.242 109.212 42.9205C109.787 42.5939 110.437 42.4269 111.098 42.4364C111.755 42.4259 112.404 42.5931 112.975 42.9205C113.516 43.2491 113.96 43.7155 114.263 44.2724C114.588 44.8948 114.75 45.5895 114.736 46.292C114.751 46.9867 114.588 47.6735 114.263 48.2866C113.96 48.8411 113.515 49.3048 112.975 49.6302C112.405 49.9696 111.752 50.1403 111.089 50.1226H111.064Z" fill="#1D1D1B"/>
<path id="Vector_5" d="M132.141 49.6133C132.695 48.5891 132.981 47.4405 132.972 46.2751C132.999 45.1075 132.712 43.9543 132.141 42.9369C131.585 41.9698 130.786 41.1667 129.823 40.6085C128.809 40.0374 127.662 39.7493 126.5 39.7739C125.36 39.7531 124.235 40.0414 123.243 40.6085C122.284 41.1649 121.489 41.9687 120.942 42.9369C120.362 43.9528 120.059 45.104 120.062 46.2751V56.4149C120.069 56.7016 120.159 56.98 120.32 57.2166C120.481 57.4531 120.708 57.6377 120.971 57.748C121.235 57.8583 121.524 57.8896 121.805 57.8382C122.086 57.7867 122.346 57.6547 122.554 57.458C122.808 57.1724 122.939 56.7974 122.919 56.4149V51.4075C123.296 51.7366 123.712 52.0169 124.157 52.2421C125.073 52.6812 126.082 52.888 127.096 52.8443C128.11 52.8007 129.098 52.5079 129.973 51.9917C130.899 51.4281 131.657 50.6237 132.166 49.6633M130.131 46.3251C130.142 47.0087 129.979 47.6838 129.657 48.2863C129.332 48.8389 128.872 49.2986 128.319 49.6216C127.907 49.8736 127.448 50.0388 126.97 50.1071C126.492 50.1755 126.005 50.1455 125.539 50.0191C125.072 49.8926 124.637 49.6724 124.258 49.3716C123.879 49.0709 123.565 48.696 123.335 48.2696C123.023 47.6543 122.861 46.9737 122.861 46.2834C122.861 45.5931 123.023 44.9125 123.335 44.2972C123.635 43.7363 124.08 43.2665 124.623 42.9369C125.187 42.6086 125.827 42.4358 126.479 42.4358C127.131 42.4358 127.772 42.6086 128.336 42.9369C128.88 43.2704 129.329 43.7389 129.64 44.2972C129.96 44.9121 130.12 45.5982 130.106 46.2918L130.131 46.3251Z" fill="#1D1D1B"/>
<path id="Vector_6" d="M144.935 40.2583C144.8 40.3953 144.695 40.5585 144.625 40.7378C144.555 40.9172 144.522 41.1089 144.528 41.3015V44.7315H138.289V41.3015C138.296 41.1088 138.264 40.9168 138.194 40.7373C138.124 40.5578 138.017 40.3947 137.882 40.2583C137.605 39.991 137.236 39.8418 136.852 39.8418C136.468 39.8418 136.098 39.991 135.821 40.2583C135.69 40.3951 135.587 40.5575 135.52 40.7354C135.453 40.9133 135.423 41.1031 135.431 41.2931V51.2493C135.419 51.6352 135.559 52.0103 135.821 52.2925C136.1 52.556 136.469 52.7027 136.852 52.7027C137.234 52.7027 137.603 52.556 137.882 52.2925C138.018 52.1545 138.124 51.99 138.194 51.8091C138.264 51.6283 138.296 51.4349 138.289 51.241V47.4438H144.52V51.2493C144.512 51.4421 144.543 51.6345 144.614 51.8141C144.684 51.9937 144.79 52.1567 144.927 52.2925C145.064 52.4301 145.227 52.538 145.407 52.6098C145.587 52.6816 145.78 52.7156 145.974 52.7098C146.166 52.7163 146.357 52.6817 146.534 52.6083C146.712 52.5349 146.872 52.4244 147.004 52.2842C147.26 52.0022 147.397 51.6311 147.386 51.2493V41.3015C147.395 40.9202 147.258 40.5499 147.004 40.2666C146.722 40.002 146.351 39.8548 145.965 39.8548C145.58 39.8548 145.208 40.002 144.927 40.2666" fill="#1D1D1B"/>
<path id="Vector_7" d="M158.552 44.0804C157.739 43.7182 156.857 43.5388 155.968 43.5546H153.334V41.3013C153.341 41.1088 153.308 40.917 153.238 40.7377C153.168 40.5583 153.062 40.3952 152.927 40.2582C152.648 39.9965 152.28 39.8511 151.897 39.8511C151.515 39.8511 151.147 39.9965 150.867 40.2582C150.607 40.5393 150.452 40.9018 150.427 41.2846V47.7858C150.414 48.7178 150.655 49.6356 151.125 50.4397C151.583 51.2149 152.244 51.8497 153.035 52.2757C153.886 52.7201 154.835 52.9438 155.794 52.9266C156.722 52.9427 157.642 52.7487 158.485 52.3591C159.254 51.9924 159.902 51.4134 160.355 50.69C160.816 49.9114 161.05 49.0174 161.027 48.1113C161.056 47.2303 160.828 46.3601 160.371 45.6076C159.93 44.9194 159.297 44.3767 158.552 44.047M155.794 50.1309C155.467 50.1433 155.142 50.0899 154.837 49.9738C154.531 49.8577 154.252 49.6812 154.016 49.4549C153.788 49.2258 153.61 48.9519 153.492 48.6503C153.375 48.3486 153.321 48.0259 153.334 47.7023V46.1668H155.968C156.56 46.1413 157.143 46.3113 157.63 46.6508C157.84 46.8266 158.004 47.0519 158.107 47.3067C158.21 47.5615 158.249 47.8379 158.219 48.1113C158.242 48.3966 158.196 48.6832 158.086 48.9473C157.977 49.2115 157.806 49.4455 157.588 49.6302C157.066 50.0043 156.434 50.1923 155.794 50.1643V50.1309Z" fill="#1D1D1B"/>
<path id="Vector_8" d="M162.481 40.258C162.347 40.3956 162.242 40.5589 162.172 40.7381C162.102 40.9173 162.069 41.1088 162.074 41.3012V51.2491C162.067 51.4427 162.1 51.6358 162.171 51.8161C162.241 51.9965 162.348 52.1603 162.484 52.2974C162.621 52.4344 162.784 52.5417 162.964 52.6126C163.143 52.6836 163.335 52.7165 163.528 52.7095C163.721 52.7178 163.914 52.6857 164.094 52.6152C164.274 52.5447 164.438 52.4374 164.574 52.3001C164.711 52.1628 164.818 51.9985 164.888 51.8176C164.958 51.6367 164.99 51.4431 164.982 51.2491V41.3012C164.987 41.1088 164.954 40.9173 164.884 40.7381C164.814 40.5589 164.709 40.3956 164.575 40.258C164.289 39.9959 163.915 39.8506 163.528 39.8506C163.141 39.8506 162.767 39.9959 162.481 40.258Z" fill="#1D1D1B"/>
<path id="Vector_9" d="M179.62 44.9148H179.529C179.426 44.1946 179.216 43.4941 178.906 42.8367C178.451 41.8972 177.739 41.107 176.854 40.5584C175.904 39.9934 174.817 39.7044 173.713 39.7239C172.578 39.7015 171.458 39.99 170.473 40.5584C169.531 41.1045 168.759 41.9054 168.247 42.8701C167.696 43.8953 167.41 45.0432 167.416 46.2083C167.395 47.3752 167.681 48.527 168.247 49.5465C168.801 50.5191 169.612 51.3191 170.59 51.8582C171.453 52.3173 172.401 52.5921 173.374 52.6654C174.348 52.7386 175.326 52.6087 176.247 52.2838C176.954 52.0534 177.615 51.7003 178.2 51.2407C178.361 51.1326 178.492 50.9843 178.579 50.8102C178.667 50.6361 178.708 50.4423 178.698 50.2475C178.682 50.0576 178.627 49.873 178.537 49.7051C178.447 49.5373 178.323 49.3896 178.175 49.2711C177.921 49.0666 177.603 48.96 177.277 48.9707C176.953 48.9833 176.641 49.0938 176.38 49.2878C176.049 49.5228 175.685 49.7084 175.3 49.8386C174.76 50.0387 174.183 50.1185 173.609 50.0724C173.036 50.0262 172.479 49.8554 171.977 49.5716C171.553 49.3297 171.182 49.005 170.885 48.6165C170.588 48.2281 170.372 47.7838 170.249 47.3099H178.2C178.559 47.3203 178.908 47.1885 179.172 46.9427C179.3 46.8186 179.401 46.6694 179.47 46.5043C179.538 46.3393 179.573 46.1618 179.57 45.983C179.571 45.6117 179.546 45.2408 179.496 44.873L179.62 44.9148ZM170.565 44.2304C170.83 43.6665 171.255 43.1934 171.786 42.8701C172.368 42.5235 173.037 42.3499 173.713 42.3694C174.316 42.3523 174.911 42.5118 175.425 42.8284C175.894 43.1436 176.268 43.5825 176.505 44.0969C176.629 44.3641 176.723 44.6439 176.787 44.9315H170.299C170.369 44.6912 170.458 44.4568 170.565 44.2304Z" fill="#1D1D1B"/>
<path id="Vector_10" d="M89.9042 62.4238C88.9791 61.8932 87.9288 61.6222 86.8636 61.6394C85.8267 61.6214 84.8044 61.8868 83.906 62.4071C83.608 62.5828 83.3295 62.7898 83.0752 63.0247C83.395 62.2162 83.882 61.4851 84.5042 60.8799C85.2549 60.1714 86.1275 59.6058 87.0796 59.2108L91.1836 57.3915C91.3778 57.328 91.5542 57.2192 91.6986 57.0742C91.8429 56.9292 91.9512 56.752 92.0144 56.5569C92.0846 56.2305 92.0557 55.8903 91.9313 55.5805C91.8697 55.4172 91.7752 55.2684 91.6537 55.1434C91.5322 55.0185 91.3863 54.9201 91.2252 54.8545C90.8791 54.7369 90.5012 54.7579 90.1701 54.9129L86.3651 56.582C84.4768 57.3189 82.8468 58.5991 81.6795 60.2624C80.6827 61.7754 80.1458 63.5471 80.1343 65.3615V67.1975V68.032C80.1927 69.0132 80.4771 69.9674 80.9651 70.8194C81.5009 71.759 82.2861 72.5304 83.2331 73.0477C84.252 73.6056 85.3958 73.8929 86.5562 73.8822C87.6784 73.899 88.7869 73.6321 89.7796 73.1061C90.7038 72.5972 91.469 71.8402 91.9895 70.9196C92.5407 69.9609 92.8275 68.872 92.8203 67.765C92.8385 66.6687 92.5783 65.5859 92.0643 64.6187C91.5798 63.7169 90.8549 62.9684 89.9707 62.4572M84.6537 64.7606C85.2271 64.4581 85.8672 64.306 86.5147 64.3183C87.1385 64.305 87.7547 64.4576 88.3008 64.7606C88.8012 65.0367 89.2153 65.4469 89.4972 65.9456C89.7989 66.4912 89.9508 67.1076 89.9375 67.7316C89.9477 68.3552 89.7959 68.9708 89.4972 69.5175C89.2212 70.0271 88.8062 70.4469 88.3008 70.7276C87.7357 71.0157 87.111 71.1659 86.4773 71.1659C85.8436 71.1659 85.2188 71.0157 84.6537 70.7276C84.1325 70.4512 83.7003 70.0315 83.4075 69.5175C83.1022 68.973 82.9473 68.3564 82.9589 67.7316C82.9442 67.109 83.0994 66.4943 83.4075 65.954C83.7059 65.4487 84.137 65.0358 84.6537 64.7606Z" fill="#1D1D1B"/>
<path id="Vector_11" d="M106.72 65.9705C106.628 65.2461 106.421 64.5415 106.105 63.8841C105.647 62.9532 104.935 62.1719 104.053 61.6308C103.105 61.062 102.016 60.7728 100.912 60.7962C99.7771 60.7747 98.6573 61.0631 97.6724 61.6308C96.7184 62.1687 95.9328 62.9636 95.4043 63.9258C94.8533 64.951 94.5676 66.0989 94.5736 67.264C94.5554 68.4305 94.8418 69.5815 95.4043 70.6022C95.9584 71.5748 96.7692 72.3748 97.7471 72.9139C98.7905 73.4784 99.9601 73.7657 101.145 73.7485C101.915 73.7368 102.679 73.5986 103.405 73.3395C104.113 73.1142 104.775 72.7607 105.357 72.2963C105.507 72.2057 105.634 72.0804 105.726 71.931C105.819 71.7815 105.874 71.6121 105.889 71.4368C105.875 71.2474 105.821 71.0632 105.73 70.8964C105.64 70.7295 105.516 70.5837 105.365 70.4687C105.115 70.2563 104.795 70.1461 104.468 70.1599C104.144 70.171 103.831 70.2816 103.571 70.477C102.932 70.9284 102.181 71.1937 101.401 71.2437C100.621 71.2938 99.8425 71.1267 99.1512 70.7608C98.5764 70.4378 98.1019 69.9612 97.7804 69.3838C97.6233 69.1049 97.5006 68.8078 97.4148 68.4991H105.374C105.733 68.5095 106.082 68.3777 106.346 68.1319C106.474 68.0078 106.575 67.8586 106.644 67.6935C106.713 67.5285 106.747 67.351 106.744 67.1722C106.745 66.8009 106.72 66.43 106.67 66.0623L106.761 66.0038L106.72 65.9705ZM97.7721 65.2778C98.0235 64.725 98.4271 64.2559 98.9352 63.9258C99.521 63.5802 100.192 63.4068 100.871 63.4251C101.473 63.4095 102.068 63.5688 102.582 63.8841C103.057 64.1948 103.435 64.6347 103.671 65.1526C103.805 65.4161 103.903 65.6969 103.961 65.9871H97.473C97.5353 65.7427 97.6215 65.5051 97.7305 65.2778H97.7721Z" fill="#1D1D1B"/>
<path id="Vector_12" d="M115.027 61.8314C114.912 61.5514 114.719 61.3108 114.471 61.1388C114.24 60.992 113.971 60.9166 113.698 60.9218C113.408 60.9149 113.122 60.9977 112.88 61.1588C112.638 61.32 112.451 61.5518 112.344 61.8231L107.708 71.8377C107.632 72.0055 107.593 72.1876 107.593 72.3718C107.593 72.556 107.632 72.7381 107.708 72.9059C107.861 73.2257 108.128 73.476 108.456 73.6069C108.788 73.7838 109.174 73.8256 109.536 73.7238C109.721 73.6713 109.892 73.5772 110.036 73.4485C110.18 73.3198 110.293 73.16 110.367 72.981L113.798 65.4701L117.121 73.0478C117.201 73.2205 117.316 73.3744 117.459 73.4995C117.603 73.6246 117.77 73.718 117.952 73.7739C118.068 73.8074 118.188 73.8243 118.309 73.8239C118.551 73.8175 118.788 73.7606 119.007 73.657C119.326 73.5283 119.582 73.2798 119.721 72.9643C119.798 72.7983 119.838 72.6174 119.838 72.4344C119.838 72.2514 119.798 72.0705 119.721 71.9045L115.027 61.8314Z" fill="#1D1D1B"/>
<path id="Vector_13" d="M127.954 67.2059L131.709 63.0916C131.834 62.9606 131.928 62.8038 131.985 62.6322C132.043 62.4605 132.062 62.2783 132.042 62.0985C131.991 61.7465 131.817 61.4242 131.551 61.1888C131.411 61.0642 131.246 60.9719 131.066 60.9186C130.887 60.8652 130.698 60.8521 130.513 60.88C130.136 60.9103 129.784 61.0798 129.524 61.3557L125.603 65.7955H124.432V62.3572C124.44 62.1617 124.408 61.9666 124.337 61.7845C124.265 61.6024 124.157 61.4372 124.019 61.2997C123.88 61.1621 123.714 61.0552 123.532 60.9858C123.35 60.9164 123.156 60.886 122.961 60.8967C122.772 60.8904 122.583 60.9252 122.408 60.9986C122.233 61.0721 122.076 61.1825 121.948 61.3223C121.693 61.6051 121.559 61.9764 121.574 62.3572V72.3217C121.564 72.6967 121.697 73.0613 121.948 73.3398C122.074 73.4841 122.23 73.5985 122.405 73.675C122.58 73.7514 122.77 73.788 122.961 73.7822C123.155 73.7915 123.349 73.7603 123.531 73.6905C123.712 73.6206 123.878 73.5136 124.016 73.3763C124.154 73.2391 124.262 73.0744 124.334 72.8929C124.406 72.7113 124.439 72.5168 124.432 72.3217V68.5579H125.404L129.807 73.3482C130.082 73.6114 130.449 73.7553 130.829 73.7488H130.879C131.238 73.7659 131.591 73.64 131.859 73.3983C131.997 73.2792 132.108 73.1321 132.186 72.9667C132.263 72.8013 132.304 72.6213 132.307 72.4385C132.308 72.2689 132.274 72.1009 132.209 71.9445C132.143 71.7882 132.047 71.6468 131.925 71.5289L127.954 67.2059Z" fill="#1D1D1B"/>
<path id="Vector_14" d="M143.481 61.2805C143.348 61.4201 143.243 61.5849 143.173 61.7654C143.103 61.9459 143.07 62.1384 143.074 62.332V68.6329C143.08 69.08 142.947 69.5179 142.692 69.8847C142.415 70.2752 142.043 70.5883 141.612 70.7943C141.105 71.0271 140.554 71.1476 139.996 71.1476C139.438 71.1476 138.887 71.0271 138.38 70.7943C137.919 70.5664 137.532 70.2101 137.267 69.7678C136.966 69.1864 136.82 68.5366 136.843 67.8818V62.3737C136.847 62.182 136.812 61.9914 136.741 61.8136C136.67 61.6357 136.563 61.4742 136.428 61.3389C136.15 61.0692 135.78 60.9184 135.393 60.9184C135.007 60.9184 134.637 61.0692 134.359 61.3389C134.224 61.4742 134.117 61.6357 134.046 61.8136C133.975 61.9914 133.94 62.182 133.944 62.3737V67.8818C133.91 69.0159 134.168 70.1395 134.691 71.1449C135.17 72.0216 135.892 72.7404 136.768 73.2145C137.674 73.6855 138.682 73.9235 139.701 73.9072C140.673 73.9198 141.633 73.6874 142.492 73.2312C142.716 73.1049 142.933 72.9656 143.141 72.814C143.208 73.0299 143.324 73.2271 143.481 73.3898C143.762 73.652 144.132 73.7977 144.515 73.7977C144.899 73.7977 145.269 73.652 145.55 73.3898C145.686 73.2518 145.792 73.0873 145.862 72.9064C145.932 72.7256 145.964 72.5322 145.957 72.3383V62.332C145.963 62.1382 145.93 61.9451 145.86 61.7644C145.79 61.5836 145.685 61.419 145.55 61.2805C145.269 61.0183 144.899 60.8726 144.515 60.8726C144.132 60.8726 143.762 61.0183 143.481 61.2805Z" fill="#1D1D1B"/>
<path id="Vector_15" d="M97.5808 32.6138C97.5863 32.6271 97.5891 32.6412 97.5891 32.6556C97.5891 32.6699 97.5863 32.6841 97.5808 32.6973C97.5566 32.7252 97.5248 32.7455 97.4894 32.7557H97.3066H97.0242H96.7334C96.6727 32.7625 96.6114 32.7625 96.5506 32.7557C96.512 32.7476 96.477 32.7271 96.4509 32.6973C96.4426 32.6701 96.4426 32.641 96.4509 32.6138V29.2089H94.8558V32.6138C94.8642 32.641 94.8642 32.6701 94.8558 32.6973C94.8268 32.7233 94.7929 32.7431 94.7561 32.7557H94.5734H94.2826H94.0001C93.9394 32.7625 93.8781 32.7625 93.8174 32.7557C93.7787 32.7476 93.7438 32.7271 93.7177 32.6973C93.7093 32.6701 93.7093 32.641 93.7177 32.6138V28.608C93.7121 28.5066 93.7415 28.4064 93.8007 28.3242C93.8312 28.2887 93.8698 28.261 93.9132 28.2435C93.9566 28.2261 94.0035 28.2194 94.05 28.2241H97.3731C97.4183 28.2201 97.4638 28.2271 97.5058 28.2446C97.5477 28.262 97.5848 28.2893 97.614 28.3242C97.6767 28.4047 97.7065 28.5062 97.6971 28.608L97.5808 32.6138Z" fill="#1D1D1B"/>
<path id="Vector_16" d="M102.74 32.6305C102.741 32.6501 102.737 32.6695 102.728 32.687C102.719 32.7045 102.706 32.7195 102.69 32.7307C102.645 32.7593 102.594 32.7792 102.541 32.7891H102.242H101.934C101.883 32.7812 101.835 32.7612 101.793 32.7307C101.78 32.6985 101.78 32.6626 101.793 32.6305V32.2883C101.624 32.4733 101.421 32.6236 101.195 32.7307C100.962 32.834 100.71 32.8853 100.456 32.8809C100.248 32.8841 100.04 32.856 99.8407 32.7974C99.6664 32.74 99.5033 32.6524 99.3589 32.5387C99.2198 32.4204 99.109 32.272 99.0349 32.1047C98.9578 31.9171 98.921 31.7152 98.9269 31.5122C98.9216 31.2897 98.97 31.0692 99.0681 30.8696C99.1693 30.6832 99.3185 30.5276 99.5001 30.419C99.7208 30.2884 99.9626 30.198 100.215 30.1519C100.538 30.0908 100.866 30.0628 101.195 30.0684H101.602V29.8097C101.616 29.6933 101.616 29.5756 101.602 29.4592C101.573 29.371 101.528 29.2889 101.469 29.2172C101.399 29.1481 101.314 29.0966 101.22 29.067C101.096 29.0301 100.967 29.0132 100.838 29.0169C100.658 29.0165 100.48 29.0389 100.306 29.0837L99.8989 29.2339L99.5998 29.3758C99.5408 29.4174 99.4722 29.4433 99.4004 29.4509C99.3705 29.459 99.339 29.459 99.309 29.4509C99.2804 29.4223 99.2578 29.3883 99.2426 29.3507C99.2426 29.309 99.2426 29.2589 99.2426 29.2005C99.2381 29.1338 99.2381 29.0669 99.2426 29.0002C99.2317 28.9227 99.2317 28.844 99.2426 28.7665C99.2551 28.7094 99.284 28.6572 99.3256 28.6163C99.3943 28.5535 99.4729 28.5028 99.5583 28.4661C99.6838 28.4025 99.8144 28.3494 99.9487 28.3075C100.09 28.2658 100.256 28.2241 100.431 28.1907C100.61 28.178 100.791 28.178 100.971 28.1907C101.251 28.1865 101.53 28.2202 101.801 28.2908C102.015 28.3417 102.214 28.4417 102.383 28.5829C102.534 28.7242 102.645 28.9026 102.707 29.1004C102.785 29.3457 102.821 29.6024 102.815 29.8598L102.74 32.6305ZM101.569 30.8195H101.12C100.956 30.8142 100.791 30.8282 100.63 30.8613C100.512 30.8785 100.398 30.9212 100.298 30.9864C100.218 31.0366 100.154 31.1091 100.115 31.1951C100.073 31.2808 100.053 31.3753 100.057 31.4705C100.051 31.5481 100.064 31.6259 100.092 31.6982C100.121 31.7704 100.166 31.8352 100.223 31.8878C100.353 31.9954 100.52 32.0491 100.688 32.038C100.849 32.039 101.007 31.9957 101.145 31.9128C101.306 31.8121 101.449 31.6852 101.569 31.5373V30.8195Z" fill="#1D1D1B"/>
<path id="Vector_17" d="M108.547 30.4353C108.551 30.7787 108.509 31.1212 108.422 31.4534C108.359 31.7304 108.24 31.9916 108.073 32.2212C107.922 32.4273 107.726 32.5958 107.5 32.7136C107.24 32.8335 106.955 32.8907 106.669 32.8805C106.556 32.8941 106.442 32.8941 106.329 32.8805C106.228 32.8568 106.13 32.8204 106.038 32.772C105.936 32.7199 105.838 32.6585 105.747 32.5884C105.646 32.5072 105.549 32.4208 105.456 32.3297V34.3243C105.465 34.3515 105.465 34.3806 105.456 34.4077C105.43 34.4384 105.395 34.4614 105.357 34.4745C105.296 34.4813 105.235 34.4813 105.174 34.4745H104.601C104.54 34.482 104.479 34.482 104.418 34.4745C104.381 34.4592 104.347 34.4365 104.318 34.4077C104.31 34.3806 104.31 34.3515 104.318 34.3243V28.3823C104.31 28.3551 104.31 28.326 104.318 28.2988C104.339 28.2711 104.368 28.2507 104.401 28.2404C104.451 28.2339 104.501 28.2339 104.551 28.2404H104.792H105.033H105.191C105.224 28.2507 105.253 28.2711 105.274 28.2988C105.282 28.326 105.282 28.3551 105.274 28.3823V28.8747C105.398 28.7495 105.515 28.641 105.631 28.5408C105.743 28.4469 105.866 28.3657 105.996 28.2988C106.114 28.2336 106.239 28.1858 106.37 28.157C106.509 28.1229 106.651 28.1061 106.794 28.1069C107.082 28.091 107.37 28.1545 107.625 28.2905C107.841 28.4074 108.021 28.5803 108.148 28.7912C108.294 29.0156 108.398 29.2643 108.456 29.5256C108.517 29.8249 108.548 30.1297 108.547 30.4353ZM107.309 30.5187C107.308 30.3455 107.294 30.1725 107.268 30.0013C107.247 29.8477 107.202 29.6983 107.135 29.559C107.075 29.4365 106.987 29.3305 106.877 29.2502C106.763 29.1707 106.626 29.1297 106.487 29.1334C106.41 29.1206 106.331 29.1206 106.254 29.1334C106.169 29.162 106.088 29.2012 106.013 29.2502C105.928 29.3145 105.848 29.3842 105.772 29.4589C105.671 29.5553 105.579 29.6615 105.498 29.776V31.1697C105.634 31.3533 105.794 31.5188 105.972 31.6621C106.107 31.7684 106.273 31.8296 106.445 31.8373C106.587 31.8405 106.726 31.7997 106.844 31.7205C106.956 31.637 107.047 31.5284 107.11 31.4034C107.181 31.2669 107.231 31.1207 107.259 30.9694C107.289 30.8294 107.306 30.6869 107.309 30.5438V30.5187Z" fill="#1D1D1B"/>
<path id="Vector_18" d="M113.831 32.6638C113.836 32.683 113.836 32.7031 113.831 32.7223C113.798 32.7298 113.764 32.7298 113.731 32.7223C113.673 32.7293 113.615 32.7293 113.557 32.7223H112.934H112.734C112.694 32.7175 112.656 32.7 112.626 32.6722C112.601 32.6542 112.583 32.6275 112.576 32.5971L112.186 31.5873C112.146 31.4676 112.093 31.3528 112.028 31.2451C111.981 31.1598 111.919 31.0836 111.845 31.0198C111.778 30.9679 111.702 30.9284 111.621 30.9029C111.524 30.8892 111.427 30.8892 111.33 30.9029H111.089V32.6305C111.093 32.6397 111.095 32.6496 111.095 32.6597C111.095 32.6697 111.093 32.6796 111.089 32.6889C111.058 32.7165 111.021 32.7365 110.981 32.7473H110.798H110.524H110.25H110.059C110.022 32.7347 109.988 32.7148 109.959 32.6889C109.953 32.6699 109.953 32.6494 109.959 32.6305V28.3576C109.952 28.3359 109.952 28.3125 109.959 28.2908L110.059 28.2407H110.25H110.524H110.798H110.981L111.089 28.2908C111.094 28.3013 111.096 28.3127 111.096 28.3242C111.096 28.3357 111.094 28.347 111.089 28.3576V30.0267H111.33C111.418 30.0394 111.508 30.0394 111.596 30.0267C111.674 30.0015 111.745 29.9587 111.804 29.9015C111.879 29.8428 111.941 29.7689 111.986 29.6845C112.05 29.576 112.103 29.4614 112.144 29.3423L112.502 28.4327C112.51 28.4026 112.524 28.3743 112.543 28.3492C112.574 28.3215 112.611 28.3015 112.651 28.2908C112.712 28.284 112.773 28.284 112.834 28.2908H113.15H113.44C113.498 28.2846 113.557 28.2846 113.615 28.2908C113.656 28.2908 113.69 28.2908 113.698 28.3325C113.705 28.3542 113.705 28.3776 113.698 28.3993C113.705 28.4379 113.705 28.4775 113.698 28.5161C113.698 28.5161 113.698 28.6163 113.631 28.6914L113.299 29.5259C113.241 29.6692 113.169 29.8062 113.083 29.9349C113.021 30.0364 112.946 30.129 112.859 30.2103C112.79 30.2791 112.711 30.3381 112.626 30.3855C112.555 30.4286 112.48 30.4649 112.402 30.494L112.676 30.6275C112.764 30.6785 112.844 30.7402 112.917 30.8111C113.002 30.8973 113.077 30.9924 113.141 31.0949C113.221 31.2228 113.29 31.3568 113.349 31.4955L113.756 32.4469C113.774 32.4821 113.791 32.5183 113.806 32.5553C113.805 32.5804 113.805 32.6054 113.806 32.6305C113.809 32.6526 113.809 32.6751 113.806 32.6972L113.831 32.6638Z" fill="#1D1D1B"/>
<path id="Vector_19" d="M121.59 32.6137C121.596 32.6269 121.598 32.6411 121.598 32.6554C121.598 32.6697 121.596 32.6839 121.59 32.6972C121.566 32.7251 121.534 32.7454 121.499 32.7556H121.316H121.025H120.743H120.552C120.516 32.7454 120.484 32.7251 120.46 32.6972C120.452 32.67 120.452 32.6409 120.46 32.6137V29.2087H118.865V32.6137C118.873 32.6409 118.873 32.67 118.865 32.6972C118.834 32.7248 118.797 32.7448 118.757 32.7556C118.696 32.7633 118.635 32.7633 118.574 32.7556H118.292H118.001H117.818C117.783 32.7454 117.751 32.7251 117.727 32.6972C117.719 32.67 117.719 32.6409 117.727 32.6137V28.6079C117.719 28.5075 117.745 28.4074 117.802 28.3241C117.835 28.2894 117.875 28.2624 117.919 28.2451C117.964 28.2278 118.012 28.2206 118.059 28.224H121.382C121.427 28.2213 121.473 28.2289 121.514 28.2463C121.556 28.2636 121.593 28.2902 121.623 28.3241C121.683 28.4063 121.712 28.5065 121.706 28.6079L121.59 32.6137Z" fill="#1D1D1B"/>
<path id="Vector_20" d="M127.406 30.4356C127.41 30.779 127.368 31.1215 127.281 31.4537C127.218 31.7307 127.099 31.9919 126.932 32.2215C126.786 32.4324 126.589 32.602 126.359 32.7139C126.111 32.8268 125.842 32.8838 125.57 32.8808C125.457 32.894 125.342 32.894 125.229 32.8808C125.128 32.8571 125.03 32.8207 124.938 32.7723C124.836 32.7202 124.739 32.6588 124.648 32.5887C124.546 32.5075 124.449 32.4211 124.357 32.33V34.3246C124.362 34.3378 124.365 34.352 124.365 34.3663C124.365 34.3806 124.362 34.3948 124.357 34.408C124.333 34.4387 124.302 34.4619 124.265 34.4748C124.205 34.4816 124.143 34.4816 124.083 34.4748H123.509C123.449 34.4823 123.387 34.4823 123.327 34.4748C123.289 34.4595 123.255 34.4368 123.227 34.408C123.219 34.3809 123.219 34.3518 123.227 34.3246V28.3826C123.219 28.3554 123.219 28.3263 123.227 28.2991C123.248 28.2714 123.277 28.251 123.31 28.2407H123.468H123.709H123.941H124.099C124.132 28.251 124.161 28.2714 124.182 28.2991C124.191 28.3263 124.191 28.3554 124.182 28.3826V28.875C124.298 28.7569 124.42 28.6455 124.548 28.5412C124.658 28.4473 124.777 28.3661 124.905 28.2991C125.022 28.2339 125.148 28.1861 125.279 28.1573C125.418 28.1232 125.56 28.1064 125.703 28.1072C125.977 28.0988 126.249 28.162 126.492 28.2908C126.708 28.4077 126.889 28.5806 127.015 28.7915C127.161 29.0159 127.265 29.2646 127.323 29.5259C127.381 29.8255 127.409 30.1303 127.406 30.4356ZM126.168 30.519C126.185 30.347 126.185 30.1737 126.168 30.0016C126.144 29.8488 126.099 29.7001 126.035 29.5593C125.976 29.4368 125.887 29.3308 125.777 29.2505C125.663 29.171 125.526 29.13 125.387 29.1337C125.31 29.1209 125.231 29.1209 125.154 29.1337C125.069 29.1623 124.989 29.2015 124.913 29.2505C124.826 29.3146 124.743 29.3843 124.664 29.4592C124.57 29.5602 124.482 29.6661 124.398 29.7763V31.17C124.535 31.3536 124.694 31.5191 124.872 31.6624C125.008 31.7687 125.173 31.8299 125.345 31.8376C125.487 31.8397 125.626 31.799 125.744 31.7208C125.854 31.6349 125.944 31.5268 126.01 31.4037C126.081 31.2672 126.131 31.121 126.16 30.9697C126.175 30.8284 126.178 30.6859 126.168 30.5441V30.519Z" fill="#1D1D1B"/>
<path id="Vector_21" d="M132.93 32.6301C132.939 32.6545 132.939 32.6809 132.93 32.7053C132.906 32.7332 132.874 32.7535 132.839 32.7637H132.656H132.091H131.908C131.868 32.7529 131.831 32.7329 131.8 32.7053C131.793 32.6808 131.793 32.6546 131.8 32.6301V30.7441C131.8 30.6105 131.8 30.4687 131.8 30.3268C131.8 30.1849 131.8 30.043 131.8 29.9095C131.725 30.0451 131.642 30.1761 131.551 30.3018L131.285 30.6856L129.865 32.6218L129.79 32.7053C129.763 32.7342 129.728 32.7545 129.69 32.7637H129.541H129.034H128.859C128.826 32.7534 128.797 32.733 128.776 32.7053C128.771 32.692 128.768 32.6779 128.768 32.6635C128.768 32.6492 128.771 32.635 128.776 32.6218V28.3823C128.771 28.3691 128.768 28.3549 128.768 28.3406C128.768 28.3262 128.771 28.3121 128.776 28.2988C128.801 28.2709 128.832 28.2506 128.868 28.2404C128.929 28.2337 128.99 28.2337 129.051 28.2404H129.325C129.484 28.2326 129.644 28.2495 129.798 28.2905C129.89 28.2905 129.939 28.3739 129.939 28.4324V30.3101C129.939 30.4353 129.939 30.5688 129.939 30.7107C129.939 30.8526 129.939 30.9861 129.939 31.1113L130.164 30.7357L130.413 30.3769L131.85 28.4324C131.873 28.3979 131.901 28.367 131.933 28.3406C131.962 28.3146 131.996 28.2947 132.033 28.2821C132.086 28.2775 132.138 28.2775 132.191 28.2821H132.432H132.706C132.764 28.2711 132.823 28.2711 132.88 28.2821C132.914 28.2924 132.943 28.3129 132.964 28.3406C132.972 28.3678 132.972 28.3968 132.964 28.424L132.93 32.6301Z" fill="#1D1D1B"/>
<path id="Vector_22" d="M138.464 32.6635C138.468 32.6726 138.47 32.6826 138.47 32.6927C138.47 32.7029 138.468 32.7129 138.464 32.722C138.436 32.7294 138.408 32.7294 138.381 32.722H138.189H137.583C137.514 32.7293 137.444 32.7293 137.375 32.722C137.335 32.7172 137.297 32.6997 137.267 32.6719C137.242 32.6539 137.224 32.6272 137.217 32.5968L136.819 31.587C136.785 31.4663 136.735 31.3511 136.669 31.2448C136.619 31.1614 136.558 31.0855 136.486 31.0195C136.419 30.9676 136.343 30.928 136.262 30.9026C136.166 30.8889 136.068 30.8889 135.971 30.9026H135.73V32.6301C135.736 32.6493 135.736 32.6695 135.73 32.6886C135.699 32.7162 135.662 32.7362 135.622 32.747C135.562 32.7537 135.5 32.7537 135.44 32.747H135.165H134.891C134.83 32.7537 134.769 32.7537 134.708 32.747C134.668 32.7362 134.631 32.7162 134.6 32.6886C134.594 32.6696 134.594 32.6491 134.6 32.6301V28.3573C134.593 28.3356 134.593 28.3122 134.6 28.2905L134.708 28.2404C134.769 28.2337 134.83 28.2337 134.891 28.2404H135.165H135.44C135.5 28.2337 135.562 28.2337 135.622 28.2404L135.73 28.2905C135.73 28.2905 135.73 28.3322 135.73 28.3573V30.0264H135.971C136.059 30.0391 136.149 30.0391 136.237 30.0264C136.314 29.9991 136.385 29.9565 136.445 29.9012C136.518 29.8399 136.579 29.7665 136.628 29.6842C136.691 29.5757 136.744 29.4611 136.785 29.342L137.134 28.4324L137.184 28.3489C137.213 28.3229 137.247 28.3031 137.284 28.2905C137.347 28.2848 137.411 28.2848 137.475 28.2905H137.791H138.081C138.139 28.2843 138.198 28.2843 138.256 28.2905C138.297 28.2905 138.331 28.2905 138.339 28.3322C138.346 28.3539 138.346 28.3773 138.339 28.399C138.342 28.4379 138.342 28.4769 138.339 28.5158C138.322 28.5762 138.3 28.6349 138.272 28.6911L137.94 29.5256C137.885 29.6704 137.813 29.8078 137.724 29.9346C137.665 30.0379 137.589 30.1309 137.5 30.21C137.432 30.2807 137.354 30.3399 137.267 30.3852C137.197 30.4298 137.122 30.4662 137.043 30.4937C137.137 30.5315 137.229 30.5761 137.317 30.6272C137.405 30.6782 137.486 30.7399 137.558 30.8108C137.643 30.897 137.718 30.9921 137.782 31.0946C137.859 31.2244 137.928 31.3581 137.99 31.4952L138.397 32.4465C138.416 32.4818 138.432 32.518 138.447 32.555V32.6301C138.451 32.6523 138.451 32.6748 138.447 32.6969C138.449 32.6843 138.455 32.6725 138.464 32.6635Z" fill="#1D1D1B"/>
<path id="Vector_23" d="M143.565 32.6134C143.573 32.6406 143.573 32.6697 143.565 32.6969C143.535 32.7228 143.502 32.7427 143.465 32.7553C143.407 32.7624 143.348 32.7624 143.29 32.7553H143H142.709H142.526C142.49 32.7473 142.457 32.7266 142.435 32.6969C142.426 32.6697 142.426 32.6406 142.435 32.6134V29.1918H141.604C141.554 29.6925 141.488 30.1265 141.413 30.502C141.352 30.831 141.266 31.1547 141.155 31.4701C141.081 31.7102 140.972 31.938 140.831 32.1461C140.728 32.3105 140.595 32.4547 140.441 32.5717C140.303 32.6731 140.148 32.7493 139.984 32.797C139.813 32.8384 139.637 32.8581 139.46 32.8554C139.428 32.8647 139.393 32.8647 139.361 32.8554C139.343 32.8504 139.327 32.8408 139.314 32.8277C139.301 32.8145 139.291 32.7982 139.286 32.7803C139.282 32.7276 139.282 32.6745 139.286 32.6218C139.286 32.555 139.286 32.4632 139.286 32.3464C139.286 32.2295 139.286 32.1377 139.286 32.0626C139.28 32.0072 139.28 31.9512 139.286 31.8957C139.286 31.8512 139.303 31.8262 139.336 31.8206C139.336 31.8206 139.377 31.8206 139.411 31.8206C139.499 31.8182 139.587 31.7983 139.668 31.7622C139.758 31.7183 139.835 31.6522 139.892 31.5702C139.973 31.4529 140.04 31.3269 140.092 31.1947C140.165 31.0078 140.224 30.8152 140.266 30.6188C140.316 30.3852 140.374 30.1014 140.416 29.7843C140.457 29.4672 140.507 29.0833 140.557 28.6493C140.554 28.5468 140.58 28.4457 140.632 28.3572C140.663 28.3253 140.701 28.3006 140.742 28.2847C140.784 28.2689 140.828 28.2623 140.873 28.2654H143.274C143.318 28.2623 143.363 28.2689 143.404 28.2847C143.446 28.3006 143.483 28.3253 143.515 28.3572C143.576 28.4413 143.606 28.5451 143.598 28.6493L143.565 32.6134Z" fill="#1D1D1B"/>
<path id="Vector_24" d="M151.482 30.4437C151.485 30.7807 151.435 31.116 151.332 31.4368C151.239 31.7203 151.09 31.9817 150.892 32.2046C150.701 32.424 150.462 32.5955 150.194 32.7053C149.89 32.8261 149.565 32.8857 149.239 32.8806C148.935 32.8865 148.632 32.8442 148.341 32.7554C148.102 32.6795 147.882 32.55 147.699 32.3765C147.516 32.2031 147.375 31.9902 147.286 31.7539C147.183 31.4868 147.121 31.2054 147.104 30.9194H146.331V32.5885C146.339 32.6157 146.339 32.6448 146.331 32.6719C146.303 32.6998 146.269 32.72 146.231 32.7304H146.048H145.758H145.475C145.414 32.7371 145.353 32.7371 145.292 32.7304C145.255 32.72 145.22 32.6998 145.193 32.6719C145.184 32.6448 145.184 32.6157 145.193 32.5885V28.3824C145.184 28.3552 145.184 28.3261 145.193 28.2989C145.22 28.271 145.255 28.2509 145.292 28.2405C145.353 28.2337 145.414 28.2337 145.475 28.2405H145.758H146.048H146.231C146.269 28.2509 146.303 28.271 146.331 28.2989C146.339 28.3261 146.339 28.3552 146.331 28.3824V30.0515H147.112C147.142 29.7802 147.215 29.5154 147.328 29.267C147.43 29.042 147.577 28.8404 147.76 28.6744C147.954 28.5032 148.18 28.3727 148.424 28.2906C148.711 28.1958 149.012 28.1507 149.313 28.157C149.639 28.1466 149.964 28.2005 150.269 28.3156C150.528 28.4137 150.761 28.5708 150.95 28.7746C151.133 28.9886 151.269 29.2388 151.349 29.509C151.438 29.8124 151.483 30.1273 151.482 30.4437ZM150.252 30.4938C150.256 30.3037 150.242 30.1137 150.211 29.9263C150.183 29.7682 150.13 29.6159 150.053 29.4756C149.985 29.3461 149.881 29.239 149.754 29.1668C149.609 29.088 149.445 29.0505 149.28 29.0583C149.125 29.0539 148.971 29.0883 148.832 29.1585C148.704 29.2285 148.596 29.3288 148.516 29.4506C148.426 29.5882 148.361 29.7408 148.325 29.9012C148.29 30.094 148.273 30.2896 148.275 30.4854C148.257 30.6797 148.257 30.8753 148.275 31.0696C148.302 31.2303 148.355 31.3853 148.433 31.5286C148.498 31.6531 148.6 31.7549 148.724 31.8207C148.872 31.8983 149.038 31.9357 149.205 31.9292C149.351 31.9331 149.496 31.9046 149.629 31.8457C149.759 31.788 149.871 31.6957 149.953 31.5787C150.046 31.4427 150.111 31.2895 150.144 31.128C150.209 30.9225 150.245 30.7091 150.252 30.4938Z" fill="#1D1D1B"/>
<path id="Vector_25" d="M156.333 32.6137C156.342 32.6409 156.342 32.67 156.333 32.6972C156.306 32.7251 156.271 32.7452 156.234 32.7556C156.173 32.7634 156.112 32.7634 156.051 32.7556H155.768H155.478C155.417 32.7624 155.356 32.7624 155.295 32.7556C155.245 32.7556 155.212 32.7556 155.203 32.6972C155.198 32.684 155.195 32.6698 155.195 32.6555C155.195 32.6411 155.198 32.627 155.203 32.6137V31.1616C155.045 31.2265 154.881 31.2768 154.713 31.3118C154.52 31.3258 154.325 31.3258 154.132 31.3118C153.864 31.3198 153.598 31.2831 153.342 31.2033C153.154 31.1389 152.983 31.0302 152.844 30.8862C152.717 30.7483 152.623 30.5826 152.57 30.4022C152.487 30.1792 152.434 29.9463 152.412 29.7095V28.3826C152.404 28.3554 152.404 28.3263 152.412 28.2991C152.436 28.2712 152.468 28.2509 152.503 28.2407H152.686H152.977H153.268C153.326 28.2336 153.384 28.2336 153.442 28.2407C153.48 28.2511 153.514 28.2712 153.542 28.2991C153.55 28.3263 153.55 28.3554 153.542 28.3826V29.5676C153.535 29.7223 153.552 29.877 153.592 30.0266C153.613 30.1115 153.656 30.1893 153.716 30.252C153.775 30.3092 153.846 30.352 153.924 30.3771C154.018 30.3904 154.113 30.3904 154.206 30.3771C154.355 30.378 154.503 30.3612 154.647 30.3271C154.794 30.2918 154.936 30.2385 155.07 30.1685V28.3826C155.065 28.3693 155.062 28.3552 155.062 28.3408C155.062 28.3265 155.065 28.3123 155.07 28.2991C155.07 28.2991 155.07 28.2574 155.162 28.2407C155.223 28.2339 155.284 28.2339 155.345 28.2407H155.635H155.918C155.979 28.2329 156.04 28.2329 156.101 28.2407C156.138 28.2511 156.173 28.2712 156.2 28.2991C156.209 28.3263 156.209 28.3554 156.2 28.3826L156.333 32.6137Z" fill="#1D1D1B"/>
<path id="Vector_26" d="M161.8 30.3768C161.808 30.494 161.772 30.6099 161.7 30.7023C161.665 30.736 161.623 30.7622 161.577 30.7794C161.532 30.7966 161.483 30.8044 161.434 30.8025H158.875C158.872 30.9685 158.892 31.1342 158.934 31.2948C158.966 31.4372 159.036 31.5684 159.135 31.6753C159.234 31.7822 159.36 31.8611 159.499 31.9041C159.668 31.957 159.845 31.9824 160.022 31.9792C160.204 31.9977 160.388 31.9977 160.57 31.9792L160.977 31.879L161.26 31.7789C161.323 31.7696 161.388 31.7696 161.451 31.7789C161.472 31.7705 161.496 31.7705 161.517 31.7789C161.54 31.7921 161.558 31.8127 161.567 31.8373C161.574 31.876 161.574 31.9155 161.567 31.9541C161.572 32.0208 161.572 32.0878 161.567 32.1544C161.572 32.2128 161.572 32.2714 161.567 32.3297C161.572 32.3713 161.572 32.4133 161.567 32.4549C161.576 32.4849 161.576 32.5167 161.567 32.5467C161.556 32.5726 161.539 32.5955 161.517 32.6134C161.468 32.6541 161.412 32.6852 161.351 32.7052C161.237 32.7485 161.121 32.7847 161.002 32.8137C160.841 32.856 160.677 32.8895 160.512 32.9139C160.318 32.927 160.124 32.927 159.931 32.9139C159.598 32.9232 159.267 32.8753 158.95 32.772C158.683 32.6919 158.44 32.5455 158.244 32.3464C158.048 32.1382 157.903 31.8867 157.82 31.612C157.721 31.2762 157.674 30.9273 157.679 30.5771C157.674 30.2346 157.725 29.8936 157.829 29.5673C157.912 29.2832 158.057 29.021 158.252 28.7995C158.432 28.5838 158.664 28.4172 158.925 28.3155C159.211 28.2019 159.516 28.1453 159.823 28.1486C160.132 28.1388 160.44 28.1928 160.728 28.3072C160.968 28.3991 161.181 28.548 161.351 28.7411C161.512 28.9307 161.631 29.1526 161.7 29.3921C161.778 29.6632 161.818 29.9443 161.816 30.2266L161.8 30.3768ZM160.645 30.0347C160.678 29.7416 160.607 29.4463 160.446 29.2001C160.363 29.1056 160.261 29.031 160.146 28.9819C160.031 28.9328 159.906 28.9104 159.781 28.9164C159.646 28.9119 159.512 28.9405 159.391 28.9998C159.279 29.0539 159.182 29.134 159.108 29.2335C159.027 29.3332 158.97 29.4503 158.942 29.5757C158.898 29.7103 158.875 29.8512 158.875 29.9929L160.645 30.0347Z" fill="#1D1D1B"/>
<path id="Vector_27" d="M167.242 32.6137C167.247 32.627 167.25 32.6411 167.25 32.6555C167.25 32.6698 167.247 32.684 167.242 32.6972C167.217 32.7251 167.186 32.7454 167.15 32.7556C167.089 32.7624 167.028 32.7624 166.967 32.7556H166.685H166.386C166.328 32.7618 166.269 32.7618 166.211 32.7556C166.174 32.7452 166.139 32.7251 166.112 32.6972C166.103 32.67 166.103 32.6409 166.112 32.6137V30.9446H164.45V32.6137C164.458 32.6409 164.458 32.67 164.45 32.6972C164.421 32.7232 164.387 32.743 164.35 32.7556H164.168H163.885H163.594C163.534 32.7634 163.472 32.7634 163.412 32.7556C163.374 32.7452 163.34 32.7251 163.312 32.6972C163.304 32.67 163.304 32.6409 163.312 32.6137V28.3826C163.304 28.3554 163.304 28.3263 163.312 28.2991C163.34 28.2712 163.374 28.2511 163.412 28.2407C163.472 28.2329 163.534 28.2329 163.594 28.2407H163.885H164.168H164.35C164.387 28.2533 164.421 28.2731 164.45 28.2991C164.458 28.3263 164.458 28.3554 164.45 28.3826V29.9682H166.112V28.3826C166.103 28.3554 166.103 28.3263 166.112 28.2991C166.139 28.2712 166.174 28.2511 166.211 28.2407C166.269 28.2345 166.328 28.2345 166.386 28.2407H166.685H166.967C167.028 28.2339 167.089 28.2339 167.15 28.2407C167.186 28.2509 167.217 28.2712 167.242 28.2991C167.247 28.3123 167.25 28.3265 167.25 28.3408C167.25 28.3552 167.247 28.3693 167.242 28.3826V32.6137Z" fill="#1D1D1B"/>
<path id="Vector_28" d="M173.007 32.6302C173.016 32.6545 173.016 32.6809 173.007 32.7053C172.983 32.7332 172.951 32.7535 172.916 32.7637H172.741H172.168H171.985C171.945 32.753 171.908 32.733 171.877 32.7053C171.87 32.6809 171.87 32.6546 171.877 32.6302V30.7441C171.877 30.6106 171.877 30.4687 171.877 30.3268C171.877 30.185 171.877 30.0431 171.877 29.9096C171.803 30.0431 171.72 30.1766 171.637 30.3018L171.362 30.6857L169.942 32.6218C169.921 32.6533 169.896 32.6814 169.867 32.7053C169.84 32.7342 169.806 32.7545 169.767 32.7637H169.618H169.111H168.945C168.909 32.7535 168.878 32.7332 168.853 32.7053C168.845 32.6781 168.845 32.649 168.853 32.6218V28.3823C168.845 28.3551 168.845 28.3261 168.853 28.2989C168.878 28.271 168.909 28.2507 168.945 28.2405H169.128H169.41C169.567 28.2331 169.724 28.25 169.875 28.2905C169.967 28.2905 170.017 28.374 170.017 28.4324V30.3101C170.017 30.4353 170.017 30.5689 170.017 30.7107C170.017 30.8526 170.017 30.9861 170.017 31.1113L170.241 30.7358L170.49 30.3769L171.927 28.4324L172.01 28.3406C172.041 28.3129 172.078 28.2929 172.118 28.2822C172.168 28.2768 172.218 28.2768 172.268 28.2822H172.509H172.783C172.841 28.2711 172.9 28.2711 172.957 28.2822C172.991 28.2925 173.02 28.3129 173.041 28.3406C173.049 28.3678 173.049 28.3969 173.041 28.4241L173.007 32.6302Z" fill="#1D1D1B"/>
<path id="Vector_29" d="M178.773 32.6305C178.781 32.6548 178.781 32.6812 178.773 32.7056C178.749 32.7335 178.717 32.7538 178.682 32.764H178.507H177.942H177.751C177.711 32.7532 177.674 32.7332 177.643 32.7056C177.635 32.6811 177.635 32.6549 177.643 32.6305V30.7444C177.643 30.6108 177.643 30.469 177.643 30.3271C177.643 30.1852 177.643 30.0433 177.643 29.9098C177.571 30.0453 177.49 30.1763 177.402 30.3021L177.136 30.6859L175.674 32.6221C175.654 32.6535 175.628 32.6817 175.599 32.7056C175.573 32.7345 175.538 32.7548 175.5 32.764H175.35H174.843H174.677C174.642 32.7538 174.61 32.7335 174.586 32.7056C174.578 32.6784 174.578 32.6493 174.586 32.6221V28.3826C174.578 28.3554 174.578 28.3263 174.586 28.2991C174.61 28.2712 174.642 28.2509 174.677 28.2407H174.86H175.142C175.299 28.2321 175.456 28.249 175.608 28.2908C175.699 28.2908 175.749 28.3742 175.749 28.4327V30.3104C175.749 30.4356 175.749 30.5691 175.749 30.711C175.749 30.8529 175.749 30.9864 175.749 31.1116L175.973 30.736C176.056 30.6108 176.139 30.494 176.231 30.3772L177.66 28.4327C177.683 28.3982 177.711 28.3673 177.743 28.3409C177.774 28.3132 177.811 28.2932 177.851 28.2824C177.9 28.2771 177.951 28.2771 178 28.2824H178.241H178.515C178.573 28.2714 178.632 28.2714 178.69 28.2824C178.731 28.2824 178.765 28.2824 178.773 28.3409C178.781 28.3681 178.781 28.3971 178.773 28.4243V32.6305ZM178.424 26.3713C178.429 26.551 178.398 26.7297 178.333 26.8971C178.272 27.0634 178.173 27.2124 178.042 27.3311C177.89 27.467 177.712 27.5694 177.518 27.6315C177.249 27.7133 176.969 27.7499 176.688 27.74C176.421 27.7456 176.155 27.7118 175.898 27.6398C175.704 27.5861 175.523 27.4923 175.367 27.3644C175.234 27.2456 175.132 27.0969 175.068 26.9305C175.006 26.7507 174.975 26.5616 174.976 26.3713C174.968 26.3329 174.968 26.293 174.976 26.2545C175 26.2238 175.031 26.2007 175.068 26.1877C175.116 26.1618 175.17 26.1475 175.226 26.146H175.5H175.749C175.801 26.1514 175.851 26.1655 175.898 26.1877C175.93 26.209 175.955 26.2377 175.973 26.2712C175.979 26.3043 175.979 26.3382 175.973 26.3713C175.972 26.4547 175.989 26.5373 176.023 26.6133C176.047 26.6871 176.094 26.7514 176.156 26.7969C176.217 26.8517 176.287 26.8943 176.364 26.9221C176.454 26.9535 176.55 26.9677 176.646 26.9639C176.739 26.969 176.833 26.9548 176.92 26.9221C177.002 26.8991 177.076 26.8561 177.136 26.7969C177.194 26.7438 177.24 26.6782 177.269 26.605C177.297 26.5274 177.311 26.4455 177.311 26.363C177.303 26.33 177.303 26.2958 177.311 26.2628C177.326 26.2321 177.349 26.2061 177.377 26.1877C177.424 26.1655 177.475 26.1514 177.527 26.146H177.759H178.042C178.102 26.15 178.161 26.1641 178.216 26.1877C178.253 26.2007 178.284 26.2238 178.308 26.2545C178.358 26.2801 178.399 26.321 178.424 26.3713Z" fill="#1D1D1B"/>
</g>
</g>
</g>
<defs>
<clipPath id="clip0_339_5798">
<rect width="179.241" height="80" fill="white" transform="translate(0.379883 0.5)"/>
</clipPath>
</defs>
</svg>
