<svg width="176" height="80" viewBox="0 0 176 80" fill="none" xmlns="http://www.w3.org/2000/svg">
<g id="&#208;&#159;&#208;&#145;&#208;&#173;" clip-path="url(#clip0_339_5760)">
<path id="Vector" fill-rule="evenodd" clip-rule="evenodd" d="M36.7744 80L0.833008 66.9029V14.2226H9.50752V60.8155L36.7734 70.7516L64.0405 60.8159V8.69103H50.3597V0H72.7157V66.9035L36.7744 80ZM36.7744 64.8661L15.0279 56.9419V14.2226H58.5204V31.219H49.8463V22.9135H23.7018V50.8542L36.7744 55.6177L49.8467 50.8542V42.5492H58.5208V56.9426L36.7744 64.8661Z" fill="#D71920"/>
<path id="Vector_2" d="M112.889 14.2371V56.7946H104.898V20.5807H92.2355V56.7946H84.2446V14.2371H112.889ZM133.604 29.8188C138.439 29.8188 142.168 30.9172 144.791 33.1138C147.414 35.3104 148.725 38.5849 148.725 42.9372C148.725 47.6179 147.362 51.0977 144.638 53.3766C141.913 55.6556 138.132 56.7949 133.297 56.7946H121.372V14.2371H144.422L143.562 20.4572H129.362V29.8188H133.604ZM133.112 50.8203C135.095 50.9826 137.062 50.3517 138.583 49.0654C139.771 47.8951 140.366 45.8934 140.365 43.0601C140.455 42.0424 140.341 41.0169 140.029 40.044C139.718 39.0711 139.216 38.1704 138.552 37.3947C137.006 36.0863 135.006 35.4442 132.989 35.6088H129.362V50.8206L133.112 50.8203ZM160.773 13.3129C162.923 13.211 165.064 13.6443 167.006 14.574C168.947 15.5037 170.628 16.9009 171.899 18.6407C174.522 22.1916 175.834 27.7655 175.834 35.3624C175.834 42.7116 174.451 48.2752 171.684 52.053C170.365 53.8922 168.609 55.3733 166.576 56.3625C164.542 57.3516 162.294 57.8178 160.036 57.7189C157.931 57.746 155.843 57.3327 153.906 56.5056C151.969 55.6784 150.226 54.4554 148.787 52.9149L152.537 48.4802C153.564 49.3615 154.701 50.1068 155.918 50.6978C157.099 51.214 158.379 51.466 159.667 51.4364C160.834 51.4804 161.992 51.2056 163.015 50.6414C164.038 50.0771 164.889 49.2447 165.476 48.2331C166.808 46.0987 167.535 42.6498 167.659 37.8866H154.196V31.974H167.658C167.494 27.4585 166.787 24.2355 165.537 22.3051C164.997 21.3979 164.225 20.6515 163.302 20.1426C162.378 19.6338 161.335 19.381 160.282 19.4103C158.979 19.3863 157.685 19.6163 156.47 20.0877C155.158 20.6668 153.936 21.4344 152.844 22.3663L149.094 17.9321C150.626 16.469 152.406 15.2907 154.35 14.4523C156.395 13.6519 158.578 13.2647 160.773 13.3128V13.3129Z" fill="black"/>
</g>
<defs>
<clipPath id="clip0_339_5760">
<rect width="175" height="80" fill="white" transform="translate(0.833008)"/>
</clipPath>
</defs>
</svg>
