<svg width="220" height="50" viewBox="0 0 220 50" fill="none" xmlns="http://www.w3.org/2000/svg">
<g id="&#208;&#145;&#208;&#176;&#208;&#185;&#208;&#177;&#208;&#190;&#208;&#187;" clip-path="url(#clip0_346_6293)">
<path id="Vector" fill-rule="evenodd" clip-rule="evenodd" d="M49.3502 41.7139C48.9367 41.3504 48.457 41.0678 47.9367 40.881C46.8449 40.4843 45.6459 40.4843 44.5541 40.881C44.0352 41.0698 43.5565 41.3522 43.1422 41.7139C42.7347 42.0763 42.4046 42.5155 42.1713 43.0057C41.9258 43.5294 41.8018 44.1007 41.8084 44.6778C41.8084 45.2918 41.931 45.8485 42.1713 46.3528C42.4048 46.8428 42.7348 47.282 43.1422 47.6446C43.5554 48.0074 44.0345 48.2897 44.5541 48.4766C45.6459 48.8733 46.8449 48.8733 47.9367 48.4766C48.4575 48.2913 48.9374 48.0088 49.3502 47.6446C49.7574 47.2822 50.0869 46.8429 50.3194 46.3528C50.5625 45.8487 50.6841 45.2904 50.6841 44.6778C50.691 44.1005 50.5664 43.529 50.3194 43.0057C50.0871 42.5154 49.7575 42.0762 49.3502 41.7139ZM48.4056 45.6443C48.2932 45.9198 48.1255 46.17 47.9126 46.3798C47.6996 46.5835 47.4465 46.7419 47.169 46.8453C46.5757 47.0631 45.9229 47.0631 45.3295 46.8453C45.0538 46.7398 44.8018 46.5816 44.588 46.3798C44.3706 46.1722 44.2001 45.9215 44.0877 45.6443C43.8484 45.0218 43.8484 44.3343 44.0877 43.7118C44.1999 43.4345 44.3704 43.1839 44.588 42.9766C44.8013 42.7748 45.0535 42.6172 45.3295 42.5132C45.9226 42.2937 46.576 42.2937 47.169 42.5132C47.4462 42.6161 47.6992 42.7738 47.9126 42.9766C48.1254 43.1863 48.2931 43.4364 48.4056 43.7118C48.6416 44.3348 48.6416 45.0212 48.4056 45.6443Z" fill="#C11718"/>
<path id="Vector_2" fill-rule="evenodd" clip-rule="evenodd" d="M25.0398 30.2895C26.3937 29.7217 27.5542 28.9603 28.5213 28.0054C29.4906 27.0454 30.2572 25.9048 30.7765 24.6499C31.3182 23.359 31.5934 21.9743 31.5859 20.577C31.5859 19.1129 31.3161 17.7561 30.7765 16.5065C30.2374 15.2599 29.4967 14.1792 28.5283 13.2632C27.5599 12.3472 26.4027 11.6286 25.0557 11.1159C23.6989 10.6024 22.2248 10.3459 20.6336 10.3465H9.02239V7.97836H27.8538V0.718262H0.833008V31.1429H20.6087C22.2075 31.1429 23.6846 30.8585 25.0398 30.2895ZM9.02239 23.88V17.4967H20.0613C21.3261 17.4967 22.1902 17.7995 22.671 18.4055C23.1517 19.0114 23.3965 19.7344 23.3949 20.577C23.3949 21.4978 23.1639 22.2757 22.7 22.9164C22.236 23.5571 21.3817 23.88 20.1182 23.88H9.02239Z" fill="#C11718"/>
<path id="Vector_3" fill-rule="evenodd" clip-rule="evenodd" d="M71.92 31.1429L58.829 0.718262H46.9058L33.5356 31.1429H42.337L44.2316 26.6865H61.2775L63.2274 31.1429H71.92ZM47.241 19.6436L52.1422 7.92467H53.4237L58.1034 19.6436H47.241Z" fill="#C11718"/>
<path id="Vector_4" fill-rule="evenodd" clip-rule="evenodd" d="M60.2603 40.7656H57.8293L55.9306 43.5192H54.0723V40.7656H51.9712V48.5731H54.0723V45.4275H55.9874L57.9303 48.5731H60.432L57.7169 44.3811L60.2603 40.7656Z" fill="#C11718"/>
<path id="Vector_5" fill-rule="evenodd" clip-rule="evenodd" d="M68.4459 41.6294C68.1451 41.3517 67.7913 41.1358 67.4052 40.9944C66.9823 40.8395 66.5343 40.7622 66.0832 40.7663H61.4175V48.5734H63.519V46.9077H66.0861C66.5347 46.9116 66.9807 46.8404 67.4052 46.6974C67.7892 46.5653 68.1429 46.3595 68.4459 46.0918C68.7392 45.8216 68.972 45.4938 69.1294 45.1294C69.4624 44.3226 69.4624 43.4192 69.1294 42.6124C68.9715 42.2424 68.739 41.9081 68.4459 41.6298M66.9224 44.7383C66.6829 44.9235 66.3792 45.0168 66.0064 45.0168H63.519V42.66H66.0047C66.3784 42.66 66.6829 42.769 66.9224 42.9858C67.162 43.2026 67.2777 43.4981 67.2777 43.8739C67.2777 44.2599 67.1591 44.5465 66.9224 44.7378" fill="#C11718"/>
<path id="Vector_6" fill-rule="evenodd" clip-rule="evenodd" d="M15.8564 45.7222V40.7656H13.7549V48.5731H15.7681L19.9155 43.6472V48.5731H22.017V40.7656H20.0005L15.8564 45.7222Z" fill="#C11718"/>
<path id="Vector_7" fill-rule="evenodd" clip-rule="evenodd" d="M7.22216 45.979H7.16411L4.70861 40.7656H2.02051V48.5731H4.06356V43.6605L6.32204 48.5731H8.00864L10.31 43.6605V48.5731H12.4115V40.7656H9.88042L7.22216 45.979Z" fill="#C11718"/>
<path id="Vector_8" fill-rule="evenodd" clip-rule="evenodd" d="M39.8181 41.6294C39.5178 41.3519 39.1648 41.1361 38.7794 40.9944C38.3556 40.8394 37.9068 40.7622 37.455 40.7663H32.79V48.5734H34.894V46.9077H37.457C37.9066 46.9115 38.3537 46.8404 38.7794 46.6974C39.1628 46.5655 39.5159 46.3596 39.8181 46.0919C40.1117 45.8218 40.3447 45.494 40.502 45.1294C40.8328 44.3222 40.8328 43.4196 40.502 42.6124C40.3436 42.2425 40.111 41.9083 39.8181 41.6298M38.2938 44.7383C38.0542 44.9236 37.7505 45.0168 37.3789 45.0168H34.894V42.66H37.3777C37.7505 42.66 38.0542 42.769 38.2938 42.9858C38.5333 43.2026 38.6519 43.4981 38.6519 43.8739C38.6519 44.2599 38.5317 44.5465 38.2938 44.7379" fill="#C11718"/>
<path id="Vector_9" fill-rule="evenodd" clip-rule="evenodd" d="M31.6345 40.7656H29.2031L27.3031 43.5192H25.4436V40.7656H23.3462V48.5731H25.4436V45.4275H27.3599L29.3061 48.5731H31.8074L29.0895 44.3811L31.6345 40.7656Z" fill="#C11718"/>
<path id="Vector_10" fill-rule="evenodd" clip-rule="evenodd" d="M95.5689 0.779297H86.79V7.62601H89.8669L95.5689 0.779297Z" fill="#C11718"/>
<path id="Vector_11" fill-rule="evenodd" clip-rule="evenodd" d="M181.308 22.4764C182.254 20.5155 182.728 18.3427 182.729 15.9579C182.73 13.5731 182.257 11.3995 181.308 9.43697C180.361 7.47379 179.107 5.79642 177.529 4.40165C175.95 3.00687 174.12 1.92779 172.024 1.15753C169.927 0.387277 167.735 0.000130296 165.431 0.000130296C163.18 -0.0082093 160.947 0.383849 158.836 1.15753C156.749 1.92779 154.914 3.00916 153.331 4.40165C151.754 5.79764 150.501 7.47379 149.554 9.43697C148.607 11.4002 148.132 13.5733 148.132 15.9579C148.132 18.3425 148.608 20.5156 149.554 22.4764C150.5 24.4372 151.754 26.117 153.331 27.5138C154.908 28.9105 156.749 29.9884 158.836 30.7571C160.936 31.5285 163.129 31.9124 165.431 31.9124C167.733 31.9124 169.927 31.5285 172.023 30.7571C174.119 29.9856 175.951 28.9061 177.529 27.5138C179.106 26.1214 180.361 24.4388 181.308 22.4764ZM173.842 19.728C173.378 20.8455 172.738 21.7989 171.921 22.5882C171.092 23.384 170.105 24.0011 169.022 24.4004C167.91 24.8251 166.722 25.0368 165.459 25.0355C164.157 25.0355 162.962 24.8251 161.866 24.4004C160.788 23.9911 159.803 23.3752 158.968 22.5882C158.132 21.7991 157.482 20.8457 157.016 19.728C156.551 18.6103 156.319 17.3536 156.321 15.9579C156.321 14.563 156.553 13.3067 157.016 12.189C157.479 11.0713 158.13 10.1176 158.968 9.32797C159.803 8.5403 160.788 7.9237 161.865 7.51375C162.961 7.09108 164.157 6.88035 165.458 6.88035C166.721 6.88035 167.908 7.09149 169.022 7.51375C170.135 7.93602 171.101 8.54076 171.92 9.32797C172.738 10.1163 173.378 11.0699 173.841 12.189C174.305 13.308 174.537 14.5643 174.539 15.9579C174.539 17.3523 174.306 18.609 173.841 19.728" fill="#C11718"/>
<path id="Vector_12" fill-rule="evenodd" clip-rule="evenodd" d="M158.769 43.0042C158.537 42.514 158.207 42.0747 157.8 41.7124C157.386 41.3494 156.906 41.0669 156.385 40.8796C155.294 40.4829 154.095 40.4829 153.004 40.8796C152.485 41.068 152.005 41.3504 151.591 41.7124C151.184 42.0745 150.855 42.5139 150.623 43.0042C150.382 43.5299 150.257 44.1005 150.257 44.6778C150.257 45.255 150.382 45.8256 150.623 46.3513C150.855 46.8416 151.184 47.2809 151.591 47.6431C152.004 48.0062 152.484 48.2886 153.004 48.4751C154.095 48.8718 155.294 48.8718 156.385 48.4751C156.906 48.2898 157.387 48.0073 157.8 47.6431C158.207 47.2807 158.537 46.8415 158.769 46.3513C159.018 45.8274 159.144 45.2549 159.137 44.6763H159.135C159.142 44.0991 159.017 43.5276 158.771 43.0042M156.858 45.644C156.745 45.9201 156.576 46.1704 156.361 46.3795C156.149 46.5836 155.897 46.7421 155.62 46.845C155.026 47.0629 154.373 47.0629 153.78 46.845C153.504 46.7392 153.252 46.5811 153.038 46.3795C152.821 46.1716 152.65 45.921 152.537 45.644C152.414 45.3356 152.354 45.0064 152.36 44.6751C152.356 44.3452 152.416 44.0176 152.538 43.7103C152.651 43.4333 152.822 43.1828 153.039 42.9752C153.253 42.7735 153.505 42.616 153.781 42.5117C154.374 42.2922 155.028 42.2922 155.621 42.5117C155.896 42.6145 156.148 42.7721 156.359 42.9748C156.575 43.1833 156.744 43.4336 156.856 43.7099C157.089 44.3335 157.089 45.0188 156.856 45.6424" fill="#C11718"/>
<path id="Vector_13" fill-rule="evenodd" clip-rule="evenodd" d="M165.61 45.979H165.55L163.092 40.7656H160.407V48.5731H162.45V43.6605L164.708 48.5731H166.394L168.695 43.6605V48.5731H170.796V40.7656H168.268L165.61 45.979Z" fill="#C11718"/>
<path id="Vector_14" fill-rule="evenodd" clip-rule="evenodd" d="M184.473 40.7656L181.045 48.5731H183.302L183.787 47.4311H188.163L188.661 48.5731H190.891L187.531 40.7656H184.473ZM184.559 45.6241L185.817 42.617H186.144L187.345 45.6241H184.559Z" fill="#C11718"/>
<path id="Vector_15" fill-rule="evenodd" clip-rule="evenodd" d="M172.139 48.5731H174.242V42.6037H177.887V48.5731H179.988V40.7656H172.139V48.5731Z" fill="#C11718"/>
<path id="Vector_16" fill-rule="evenodd" clip-rule="evenodd" d="M194.874 0.718262L190.804 22.1744C190.584 23.3115 189.899 23.88 188.748 23.88H184.791V31.1429H189.024C191.699 31.1429 193.872 30.5192 195.543 29.2718C197.214 28.0244 198.31 25.9881 198.83 23.1631L201.726 7.97836H211.644V31.1429H219.833V0.718262H194.874Z" fill="#C11718"/>
<path id="Vector_17" fill-rule="evenodd" clip-rule="evenodd" d="M212.687 40.9942C212.3 41.1372 211.943 41.3499 211.634 41.6215C211.333 41.8961 211.094 42.2317 210.935 42.6054C210.765 43.0066 210.681 43.4381 210.687 43.873C210.687 44.4749 210.822 44.9944 211.099 45.4333C211.36 45.8563 211.723 46.2082 212.157 46.4566L210.972 48.5732H213.255L214.1 46.9346H216.561V48.5732H218.665V40.7661L214.002 40.7689C213.554 40.7633 213.109 40.8397 212.689 40.9942M216.563 42.6587V45.0288H214.075C213.703 45.0288 213.397 44.9327 213.154 44.7357C212.911 44.5387 212.788 44.2484 212.786 43.8718C212.786 43.4858 212.909 43.1855 213.154 42.9751C213.399 42.7648 213.703 42.6574 214.076 42.6574L216.563 42.6587Z" fill="#C11718"/>
<path id="Vector_18" fill-rule="evenodd" clip-rule="evenodd" d="M203.468 45.7222V40.7656H201.366V48.5731H203.383L207.526 43.6472V48.5731H209.627V40.7656H207.614L203.468 45.7222Z" fill="#C11718"/>
<path id="Vector_19" fill-rule="evenodd" clip-rule="evenodd" d="M197.922 43.6177H194.05V40.7656H191.949V48.5731H194.05V45.4824H197.922V48.5731H200.023V40.7656H197.922V43.6177Z" fill="#C11718"/>
<path id="Vector_20" fill-rule="evenodd" clip-rule="evenodd" d="M114.414 43.6177H110.54V40.7656H108.439V48.5731H110.54V45.4824H114.414V48.5731H116.513V40.7656H114.414V43.6177Z" fill="#C11718"/>
<path id="Vector_21" fill-rule="evenodd" clip-rule="evenodd" d="M84.2309 20.0283V0.717773H76.0415V31.1425H83.8986L100.054 11.9406V31.1425H108.243V0.717773H100.386L84.2309 20.0283Z" fill="#C11718"/>
<path id="Vector_22" fill-rule="evenodd" clip-rule="evenodd" d="M99.0771 42.6299H102.151V48.5731H104.252V42.6299H107.324V40.7656H99.0771V42.6299Z" fill="#C11718"/>
<path id="Vector_23" fill-rule="evenodd" clip-rule="evenodd" d="M91.8321 45.7222V40.7656H89.731V48.5731H91.7458L95.8916 43.6472V48.5731H97.9915V40.7656H95.977L91.8321 45.7222Z" fill="#C11718"/>
<path id="Vector_24" fill-rule="evenodd" clip-rule="evenodd" d="M87.6293 40.7656H81.185L80.0404 46.7105H79.0684V49.999H80.914L81.0562 48.5723H86.544L86.7006 49.999H88.529V46.7097H87.6297L87.6293 40.7656ZM85.5294 46.7105H82.2294L82.9145 42.5734H85.5307L85.5294 46.7105Z" fill="#C11718"/>
<path id="Vector_25" fill-rule="evenodd" clip-rule="evenodd" d="M121.003 40.7656L117.572 48.5731H119.83L120.317 47.4311H124.691L125.189 48.5731H127.422L124.064 40.7656H121.003ZM121.088 45.6241L122.346 42.617H122.673L123.875 45.6241H121.088Z" fill="#C11718"/>
<path id="Vector_26" fill-rule="evenodd" clip-rule="evenodd" d="M130.206 40.9942C129.82 41.1377 129.464 41.3504 129.156 41.6215C128.853 41.8953 128.615 42.2311 128.459 42.6054C128.287 43.0061 128.201 43.4378 128.207 43.873C128.207 44.475 128.345 44.9951 128.621 45.4333C128.882 45.8555 129.245 46.2071 129.677 46.4566L128.494 48.5732H130.778L131.621 46.9346H134.081V48.5732H136.181V40.7661L131.521 40.7689C131.072 40.7634 130.626 40.8398 130.205 40.9942M134.081 42.6587V45.0288H131.593C131.221 45.0288 130.913 44.9327 130.671 44.7357C130.43 44.5387 130.308 44.2484 130.308 43.8718C130.308 43.4858 130.43 43.1855 130.671 42.9751C130.912 42.7648 131.221 42.6574 131.593 42.6574L134.081 42.6587Z" fill="#C11718"/>
<path id="Vector_27" fill-rule="evenodd" clip-rule="evenodd" d="M144.175 20.577C144.175 19.1129 143.907 17.7561 143.371 16.5065C142.83 15.2599 142.089 14.1792 141.122 13.2632C140.156 12.3472 138.997 11.6286 137.648 11.1159C136.292 10.6024 134.815 10.3461 133.228 10.3461H121.615V7.97836H140.443V0.718262H113.423V31.1429H133.201C134.795 31.1429 136.271 30.8585 137.627 30.2895C138.984 29.7206 140.145 28.9592 141.11 28.0054C142.08 27.0457 142.848 25.9051 143.369 24.6499C143.909 23.3587 144.182 21.974 144.173 20.577M135.288 22.9164C134.825 23.5571 133.972 23.88 132.709 23.88H121.615V17.4967H132.654C133.916 17.4967 134.78 17.7995 135.262 18.4055C135.744 19.0114 135.988 19.7344 135.988 20.577C135.988 21.4978 135.755 22.2757 135.29 22.9164" fill="#C11718"/>
<path id="Vector_28" fill-rule="evenodd" clip-rule="evenodd" d="M149.73 40.7656H147.302L145.399 43.5192H143.541V40.7656H141.441V48.5731H143.541V45.4275H145.455L147.4 48.5731H149.903L147.185 44.3811L149.73 40.7656Z" fill="#C11718"/>
<path id="Vector_29" fill-rule="evenodd" clip-rule="evenodd" d="M72.5959 45.5515H77.2404V43.69H72.5959V42.6299H77.7673V40.7656H70.4956V48.5731H77.9537V46.6528H72.5959V45.5515Z" fill="#C11718"/>
</g>
<defs>
<clipPath id="clip0_346_6293">
<rect width="219" height="50" fill="white" transform="translate(0.833008)"/>
</clipPath>
</defs>
</svg>
